<?xml version="1.0" encoding="UTF-8"?>
<svg version="1.1" viewBox="0 0 2048 2048" width="2048" height="2048" xmlns="http://www.w3.org/2000/svg">
<path transform="translate(681,400)" d="m0 0h797l31 1 10 2 16 1 6 3 10 1 5 3 7 1 4 3 7 1 3 3 7 3 5 3v2l7 2 2 2 5 2 5 4 5 5 11 8 8 7 10 14 7 9 4 7 3 3 3 6 5 9 2 6 2 2 2 9 2 3 2 8 2 4 1 11 3 8v976l-3 7-1 11-3 5-1 8-3 3-2 7-8 16-7 10-5 9-5 5-7 10-5 5-9 8-8 5-5 5-8 6-3 1-2 3-24 12-7 2-2 2-10 2-4 2-13 1-8 3h-1e3l-8-3-13-1-4-3-8-2-2-2-7-2-12-6-5-3-6-3-8-6-5-3-9-6-2-1v-2l-4-2-5-4-5-6-5-5-6-8-8-10-3-6-9-16-4-8-1-8h-2l-3-11-2-2-1-11-3-6-1-20-2-9v-884l3-65 3-7 1-12 3-5 2-10 2-3 2-7 8-16 2-1 2-6 6-9 8-10 2-3h2l2-5 11-12 13-10 6-5 8-4 2-3 7-3 8-5 7-4 8-2 2-2 9-1 4-3 9-2 2-2 22-1 13-2z" fill="#092246"/>
<path transform="translate(1427,594)" d="m0 0h2l1 16 3 129 2 105v34l-10-5-11-8-42-28-10-7-4-1-14 20-11 16-12 17-13 18-10 14-24 34-13 18-12 17-7 10-13 18-7 10-11 15-20 28-12 17-11 16-12 16-8 12-6 8-12 17-13 18-11 15-9 13-2 4 11 16 11 15 8 11 10 15 14 19 12 17 10 14 11 16 14 19 18 26 5 6 142 1-1-14v-420h3l19 12 17 12 16 10 15 10 4 3v461h-255l-7-11-12-16-8-11-12-17-10-14-8-12-11-15-13-18-30-42-9-13-20-28-16-23-13-18-12-17-13-18-10-14-14-20-12-17-13-18-9-13-11-16-13-18-13-19-14-19-13-19-12-16-9-13-1 126-9 10-10 11-7 8-11 12-7 8-9 10-3 4h-2l-2 4-9 10-7 8-5 6 1 70 10 6 7 8 5 10 2 7v13l-4 11-4 6-5 5-8 6-12 4h-11l-11-3-9-6-8-9-4-10-1-5v-11l4-13 6-9 7-6 6-3h2v-80l10-11 9-11 12-13 7-8 4-5h2l2-4 11-12 7-8 15-16 2-3v-199h3l12 17 13 18 9 13 12 17 13 18 12 17 13 19 8 11 8 12 10 14 12 17 13 18 16 23 8 11 14-20 10-14 12-17 13-18 16-23 13-18 11-16 12-17 13-18 16-23 13-18 12-17 10-14 9-13 20-28 24-34 14-20 10-14 11-16 7-10 1-3-19-13-20-13-15-10-11-7-8-5v-2l28-11 46-18 21-8 23-9 41-16 85-33z" fill="#EDFBFD"/>
<path transform="translate(614,599)" d="m0 0h251l4 5 13 19 13 18 13 19 14 20 13 18 7 11 13 18 10 14 26 38 11 15 8 12 13 18 8 12 8 11 12 17 10 14-1 4-9 13-12 17-11 15-9 12-2 3-3-1-13-18-12-17-11-16-11-15-13-19-13-18-13-19-12-17-10-14-13-19-11-15-16-23-14-20-13-18-8-12-4-5v-2l-140-1v435h2l2-4 8-8 7-8 11-12 7-8 14-15 7-8 6-7 1-24v-212l1-7-5-1-8-6-7-8-5-10-1-6v-13l4-10 6-9 11-8 7-3 5-1h12l11 4 8 5 7 8 4 8 2 8v13l-3 10-8 11-8 6-5 2-1 251-9 10-7 8-14 15-9 11-7 7-9 11-9 9-9 11-7 7-9 11-2 5v223l125 1v-155l9-11 10-11 7-8 9-11 10-11 7-8 12-14 8-9h2v312h-273z" fill="#EDFAFD"/>
<path transform="translate(1361,940)" d="m0 0 12 7 16 11 15 10 23 15 7 5v461h-255l-7-11-12-16-8-11-12-17-10-14-8-12-11-15-13-18-30-42-3-4v-5l4-7 5-5 4-5 2-5 2-2 1-3h2v-2h2l2-4 4-7 2-1 2-5 2-4h2l2-5 4-8 4 2 7 9 17 25 14 19 12 17 10 14 11 16 14 19 18 26 5 6 142 1-1-14v-420z" fill="#EEFBFD"/>
<path transform="translate(1427,594)" d="m0 0h2l1 16 3 129 2 105v34l-10-5-11-8-42-28-10-7-4-1-14 20-11 16-12 17-13 18-10 14-24 34-13 18-12 17-7 10-13 18-7 10-11 15-20 28-12 17-11 16-12 16-8 12-6 8-12 17-13 18-11 15-9 13-2 4 11 16 3 5h-2l-1 5-5 8h-2l-2 5-7 12-3 4h-2v2h-2l-1 6-4 2 1 3-5 5-4 6h-2l-2 7-2 1-7-10-13-18-36-51-6-8 1-3h2v-2l2 1 1-1 3-1 2-5 3-5h2v-2h2l1-5 4-5h2l1-4 1-2h2l2-6h2v-4l5-5 3-5h2l2-5 5-8h2l2-5 9-13h2l2-6h2l1-4h2l2-5 7-10 2-5 5-5 11-16v-2h3l1-4h2l2-5 8-11 11-16 2-3h2l1-4 12-17 1-2h2l2-5 8-11 4-5 1-3h2v-3h2v-3l4-4 2-5h2v-2h2l1-4h2l2-5 2-3h2l2-6 1-2h2l2-5 10-14 2-3h2v-3h2l2-6 7-9 3-5 2-1 2-5 9-12 2-1 1-6 4-1 2-6h2l1-4 6-7 2-4h2l1-4 4-6 1-3 5-5 2-4h2l2-5 14-21h2l2-5 8-11 4-6 5-6 1-3h2l2-6h2l2-5h2l1-4 8-13 1-2h2v-2h2v-3h2l2-6 7-9 5-9h2l2-5 8-12 3-3 7-11h2l1-4h2l1-4 9-13 5-8h2l2-6h2l2-5 4-7 5-6 10-15h2l1-4 2-4-1-3-3-2z" fill="#D7EFFD"/>
<path transform="translate(1465,536)" d="m0 0h3l2 93 2 96 3 140 1 51v37l-5-2-81-54-16-11-5-3-10 13-13 19-11 15-10 14-13 18-11 16-26 36-10 14-8 12-10 14-16 21-10 15-11 15-12 17-9 13-14 19-10 15 1 4 8 10 9 13 8 11 11 16 12 17 13 18 14 19 3 5v2h35l-1-18v-117l-11-7-8-9-4-8-1-4v-17l4-11 7-10 11-7 11-3h9l8 2 10 5 6 5 7 11 3 9v15l-4 10-7 10-8 6-5 2-1 162h-74l-9-13-24-34-13-18-24-34-10-14-13-19 2-5 8-11 20-28 14-20 12-17 14-19 13-19 12-16 4-6 13-18 12-17 10-14 9-13 12-17 13-18 8-11 11-16 13-18 12-17 9-13 5-6 5 2 23 16 45 30 20 13 1-3-2-96-1-49-1-34-3-140-1-36-33 12-32 13-54 21-31 12-28 11-26 10-56 22-39 15-28 11-5 2 5 4 17 12 43 28 14 10 8 6v4l-10 15-11 16-13 18-11 16-26 36-12 17-26 36-7 11-14 19-16 23-11 15-12 17-9 13-13 18-13 19-6 8-5-5-10-14-24-34-11-16-13-18-9-13-12-17-16-23-10-14-7-10h-19l-11-4-10-9-6-9-3-11v-11l4-11 6-9 9-8 11-4h17l12 5 10 9 6 11 2 9v9l-3 10-3 7 13 19 12 17 10 14 8 12 24 34 13 18 7 11 7 10 4 6 4-2 12-17 10-14 13-18 7-11 12-16 9-13 8-12 13-18 9-12 14-20 10-14 13-19 26-36 12-17 10-14 1-4-32-21-15-10-25-16-21-14-10-7 1-2 29-11 28-11 39-15 28-11 46-18 77-30 29-11 30-12 26-10 24-9 24-10z" fill="#48C6DC"/>
<path transform="translate(1287,1073)" d="m0 0h9l8 2 10 5 6 5 7 11 3 9v15l-4 10-7 10-8 6-5 2-1 162h-74l-9-13-24-34-13-18-24-34-10-14-3-4 2-4 9-12 4-5 4 2 22 30 13 19 12 17 13 18 14 19 3 5v2h35l-1-18v-117l-11-7-8-9-4-8-1-4v-17l4-11 7-10 11-7z" fill="#ECFAFD"/>
<path transform="translate(1454,708)" d="m0 0 3 1v5l4 1v-2h2v2h2l-2 6-4 1-1-2 1-4h-3l1 9v2l3 1 1 2 4 2v3l1 1 1 2h-2v2h-2l-1 4-3-1-2 4 2 4-1 1v5l1-1 1-3 1 2h2l1 3 5-2 2 9v76h2l-1-4 1-24h1l2 103v37l-5-2-81-54-16-11-5-3-10 13-13 19-11 15-10 14-13 18-11 16-26 36-10 14-8 12-10 14-16 21-10 15-11 15-12 17-9 13-14 19-8 12-5 8-10 14-3 3-3-1-8-12 2-5 8-11 20-28 14-20 12-17 14-19 13-19 12-16 4-6 13-18 12-17 10-14 9-13 12-17 13-18 8-11 11-16 13-18 12-17 9-13 5-6 5 2 23 16 45 30 20 13 1-3-2-96-1-49-1-34z" fill="#3AAFD0"/>
<path transform="translate(859,812)" d="m0 0h17l12 5 10 9 6 11 2 9v9l-3 10-3 7 13 19 12 17 10 14 8 12 24 34 13 18 7 11 7 10 3 5v5l-7 11-5 8h-3l-14-20-12-17-11-16-13-18-9-13-12-17-16-23-10-14-7-10h-19l-11-4-10-9-6-9-3-11v-11l4-11 6-9 9-8z" fill="#EBFAFD"/>
<path transform="translate(1330,909)" d="m0 0 3 1-2 5 3 3-1 2 7 1-2 5-10 14-13 18-12 17-13 18-12 17-8 11-13 19-10 14-16 21-10 15-11 15-12 17-9 13-14 19-8 12-5 8-10 14-3 3-3-1-8-12 2-5 8-11 20-28 14-20 12-17 14-19 13-19 12-16 4-6 13-18 12-17 10-14 9-13 12-17 13-18 8-11 12-17 4 1z" fill="#3AB0D0"/>
<path transform="translate(1676,548)" d="m0 0 2 3 2 5v976l-3 7-1 11-3 5-1 8-3 3-2 7-8 16-7 10-5 9-5 5-7 10-5 5-9 8-8 5-5 5-8 6-3 1-2 3-24 12-7 2-2 2-10 2-4 2-13 1-8 3h-1e3l-8-3v-1l11 1 10 1h982l24-4 20-6 10-4 16-8 10-6 14-10 10-9 8-7 4-5h2l2-4 9-12 2-4h2l2-5 6-11 8-16 7-20 4-20 1-12v-948l-2-14z" fill="#3AAFD0"/>
<path transform="translate(514,1676)" d="m0 0 11 1 10 1 982 1v1h-995l-8-3z" fill="#3AAFD0"/>
<path transform="translate(1470,675)" d="m0 0h1l3 137-1 29h-2l-1-13v-64l1-2-2-1-1-3h-2l-2 2v-2l-2-1 1-2-3-1-1 2h2l-1 2-2-1v-5l-2-1 2-1-2-4h2l1-4 2-1 1 2 1-3h2l1-3h-3v-2h2l-2-3-4-1v-3l-3-3v-9h3v5l2-2 1 2 1-5v-1-2h-2v2l-5-1 2-11 1-6 6-1 3 2 1-1zm-7 23 4 2v-2zm-4 2 2 3v-3zm3 0 2 2 1-2z" fill="#44BFD9"/>
<path transform="translate(742,1283)" d="m0 0h9l6 4 4 6 1 7-3 8-6 5-8 1-8-3-5-6-1-2v-9l4-7z" fill="#092246"/>
<path transform="translate(763,743)" d="m0 0 8 1 6 4 3 6v10l-4 7-6 3h-8l-6-3-5-6-1-3v-7l3-6 5-4z" fill="#092246"/>
<path transform="translate(863,835)" d="m0 0h8l6 3 5 6 1 9-4 8-6 4h-10l-5-3-5-6-1-9 4-8z" fill="#092246"/>
<path transform="translate(1290,1096)" d="m0 0 8 1 6 5 2 4 1 7-3 8-5 5-3 1h-9l-6-4-4-6v-10l4-6 3-3z" fill="#092246"/>
<path transform="translate(885,1137)" d="m0 0h2v312h-3l1-28-1-5 1-1-1-2h2v-4h-2v-4h2l-2-5h2l-1-5 1-2h-2v-5-1l2-1v-2l-2-1v-2h2v-8h-2v-9-1l1-2-1-1 1-2-1-1 1-2-1-1 2-1v-2h-2v-8-1-4l1-1-1-2 1-1-1-2 1-1-1-2 1-1-1-3v-12l1-1-1-2 1-1-1-2h2v-2l-2-1 1-1-1-2 1-1-1-3v-5-1l1-4-1-1 2-1v-7l-2-1 1-1-1-3v-5l1-1h-1v-9-1l1-4 1-5-2-1 1-5-2-4 3-2h-2v-3h2l-3-9 1-4-1-1v-4l1-1 1-2-1-1 1-2-1-1 1-5-2-1 1-4-1-3h3l-2-1-1-8 1-4 1-2-1-1 2-1v-3l-2-1v-4l2-1-1-3 1-2-2-1h2l-1-3 1-2-2-1 1-4 1-13-5 4v-3z" fill="#D8F0FE"/>
<path transform="translate(1e3 1011)" d="m0 0 3 1-3 1v3h-2l1 2 3-1v5l3 3 3 6-14 20h-3l-10-14 2-1 2-5 9-14 2-4zm-4 6v3l2-1z" fill="#47C3DB"/>
<path transform="translate(1663,1576)" d="m0 0 1 4-9 15-6 9-2 4-5 5-7 10-5 5-9 8-8 5-5 5-8 6-3 1-2 3-24 12-7 2-2 2-10 2-4 2-13 1-8 3h-10l1-2 27-5 16-5 10-4 16-8 10-6 14-10 10-9 8-7 4-5h2l2-4 9-12 2-4h2l2-5 6-11 4-6z" fill="#3BAFD0"/>
<path transform="translate(1454,708)" d="m0 0 3 1v5l4 1v-2h2v2h2l-2 6-4 1-1-2 1-4h-3l1 9v2l3 1 1 2 4 2v3l1 1 1 2h-2v2h-2l-1 4-3-1-2 4 2 4-1 1 1 7 2 1-2 1 1 2-5-1-1-24z" fill="#3EB6D4"/>
<path transform="translate(1470,747)" d="m0 0h1l1 5 1 16 1 44-1 29h-2l-1-13v-64l1-2-2-1-1-3h-2l-2 2v-2l-2-1 1-2h-2v-2h4v-5l5 4-1-3z" fill="#44BFD9"/>
<path transform="translate(1330,909)" d="m0 0 3 1-2 5 3 3-1 2 7 1-2 5-10 14-4 5-2-1 6-9-3-2 3-2-1-3 2-1 1-3h-1l-1 3-3-1v-2l-2-1 1 3-5-2 2-5 5-7 4 1z" fill="#45C0D9"/>
<path transform="translate(1304,1147)" d="m0 0 2 1-1 162-3-1 1-5-1-8v-4-7l2-5-2-1h2v-2l-2-1 1-2v-114z" fill="#D7EFFD"/>
<path transform="translate(814,1218)" d="m0 0 3 1 1 4h-2l-1 6v138 3 6h-17v-1h15v-155z" fill="#D8F0FE"/>
<path transform="translate(768,740)" d="m0 0 5 1v2h4l6 9-2 9 2 1 1 3-2 1-2 5-3 3-1 2-5 1-2 1-7-2-3-3h11l6-3 3-6v-10l-4-7-7-3-8 1-6 3-2-2 3-3 4-2z" fill="#C7E9F9"/>
<path transform="translate(1361,940)" d="m0 0 12 7 16 11 4 4-4 1-4-3h-3l1-1-3-2-1 1h-2v-2l-3-1-3-3-2-1-2-4h-2v-2l-2 2-1 16-2-1v-21z" fill="#CDEBFA"/>
<path transform="translate(683,1078)" d="m0 0h4v30h2l2-4 8-8 7-8 5-6 1 2-1 4 1 2-5 2v3l-7 3-1 3h-2l-2 4-4 5-3 1v-2h-2l-2-6 1-5 1-2-2-1h2l-2-9v-5l1-1z" fill="#CBEAFA"/>
<path transform="translate(1269,1304)" d="m0 0 4 1v2l13-1 2-1 4 2 1 1 6 1v1h-68v-1l32-1 4-3z" fill="#D7EFFD"/>
<path transform="translate(1192,812)" d="m0 0 3 1 1 4-4 2-1 5v3l-6-1 2 4-4 5-4 1-2 1v3h-2l-1 2-2-2 10-14z" fill="#D0EDFB"/>
<path transform="translate(1679,1515)" d="m0 0h1v17l-3 7-1 11-3 5-1 8-3 3-2 7-2 3h-2l1-5 5-12 4-12 4-20 1-11z" fill="#3DB0D0"/>
<path transform="translate(752,1280)" d="m0 0 3 1v2h2l1-2 2 5 3 2 2 6v10l-3 5-1 3-2-1v2l-4 1 1-4 4-6 1-7-3-8-5-4-7-2 3-2z" fill="#C3E7F7"/>
<path transform="translate(1276,1103)" d="m0 0 3 2-1 2v10l4 6 5 3 6 1-3 1-1 2h-3l-4-2-5-2-5-10 1-10 3-1z" fill="#C5E8F8"/>
<path transform="translate(902,859)" d="m0 0 2 1-1 5-3 7 13 19 1 2-5 2-1-4 1-1-4-2 1-2h-2v-3l-2-1v-2h-2v-2h-2l-2-5 1-2-1-1 3-1v-2h-2l1-3 1 2z" fill="#CFECFB"/>
<path transform="translate(935,825)" d="m0 0 2 1 1 4 5 1 1 2 3 3 2 6-1 2h2v2h4l1 7-2 2-12-17-7-10zm20 26 2 1z" fill="#C5E8F8"/>
<path transform="translate(1469,731)" d="m0 0 2 1v13h-2v-7l-1 1h-2v3h2l-1 4h-2l-1-1v6l-5 5h2l-1 2-2-1v-5l-2-1 2-1-2-4h2l1-4 2-1 1 2 1-3h2l2-5z" fill="#48C5DC"/>
<path transform="translate(1176,691)" d="m0 0h3l1 4-3-1 2 4-1 4 1 3h-4l-11-7v-2z" fill="#CCEBFA"/>
<path transform="translate(1e3 1017)" d="m0 0 2 6 2 2 3 6-5 2-1 2-4-1h-3l-2-4 4-2 1-2-1-6z" fill="#3CB2D2"/>
<path transform="translate(880,982)" d="m0 0 4 4 8 12 4 7-1 4h-3l1-2 1-1-5-1 1-4h-2l-5-6h2v-2l-3-1 1-1-6-4 2-1z" fill="#D1EDFB"/>
<path transform="translate(845,818)" d="m0 0 1 3-1 2h-2v4h-3v2l-2 2-1 5h-2l1 4-1 2h-2l-1 5h-2v8h-1v-11l4-11 6-9z" fill="#C9EAF9"/>
<path transform="translate(877,883)" d="m0 0 3 1v2h3l2 4-1 2h2l1 2h3l2 9v3l-5-5-8-12-3-1h-8v-2z" fill="#D4EEFC"/>
<path transform="translate(734,1285)" d="m0 0 2 2-4 7v9l4 6 5 3 10 1v3l-7 1-4-1-5-3v-2l-4-1-2-5v-16z" fill="#C3E7F8"/>
<path transform="translate(1333,920)" d="m0 0 7 1-2 5-10 14-4 5-2-1 6-9-3-2 3-2-1-3 2-1 1-3h3l-4-2 2-1 2 1z" fill="#46C2DB"/>
<path transform="translate(903,1054)" d="m0 0 4 2 1 5 2 1v4l5-2v2l-1 1 3 4 4 4-1 4-4-1-13-18-1-5z" fill="#CEECFB"/>
<path transform="translate(1472,791)" d="m0 0h1l1 21-1 29h-2l-1-13v-34z" fill="#49C7DD"/>
<path transform="translate(781,1161)" d="m0 0 4 1-2 1-2 4-9 10-6 7-3-1 1-3h2l1-3h2l-1-4 3-1 1-6h2l1 1 3-1 1-3z" fill="#C7E9F8"/>
<path transform="translate(1231,756)" d="m0 0h2v5l-3 1v2h-2v2l2 1-3 1-2 5-1 5-1-2-5 1 1 4-2 2-4 2v-3l12-17z" fill="#C8E9F9"/>
<path transform="translate(827,674)" d="m0 0 5 1 7 7 2 1 1 5-1 1 2 1v5l-2 1-10-15-4-5z" fill="#C8E9F9"/>
<path transform="translate(733,1255)" d="m0 0h1v5h2l-2 7-5 1-4 2 1 4-9 1v2h-2v2l-2-1 6-8 8-6 6-2z" fill="#C5E8F8"/>
<path transform="translate(1257,1121)" d="m0 0 4 5v2h2l1 4h2v2l3 2 1 4 3 3-2 2-10-9-6-11v-2h2z" fill="#CAEAF9"/>
<path transform="translate(918,1039)" d="m0 0 4 2 12 17 1 3-6-1-1-4h-2l-1-4-1-3-4-2v-2l-4-2v-3z" fill="#CFECFA"/>
<path transform="translate(763,1148)" d="m0 0 2 3-1 2h-2l-2 6-2 4 2 2h-4-2l-4 2-1 2-3-1 6-8z" fill="#D0EDFB"/>
<path transform="translate(1663,1576)" d="m0 0 1 4-9 15-6 9-2 4-4 1 5-10h2l2-5 6-11 4-6z" fill="#45B3D3"/>
<path transform="translate(1180,1193)" d="m0 0 5 5 8 12 3 5-6-1-2-3h-2v-5l-3-1v-2l-4-4 1-1-2-2h2z" fill="#CAEAF9"/>
<path transform="translate(1458,809)" d="m0 0 3 3h2l-1 5-1 1v2h-2l1 3v13l1 4h-2v12h-1l-2-30 1-6v-6z" fill="#46C2DA"/>
<path transform="translate(743,787)" d="m0 0h2l3 3 10 4v2h-2v2h-2v37l-2-1v-32l1-7-5-1-6-4z" fill="#CEECFB"/>
<path transform="translate(885,1137)" d="m0 0h2v50l-3 1-1-5 2-3-1-1 2-1v-3l-2-1v-4l2-1-1-3 1-2-2-1h2l-1-3 1-2-2-1 1-4 1-13-5 4v-3z" fill="#D8F0FE"/>
<path transform="translate(980,885)" d="m0 0 2 1 2 3v3l4 1 1 4-1 1 3 1-1 2 4 1-1 2-2 1h-3l-10-15-1-4z" fill="#CAEAFA"/>
<path transform="translate(1471,726)" d="m0 0h1v26l-2-2v2l-4-2-1 3h-4l1-2 1-3v-4h2v2l2-1 1-3h-2v-3h2v-2l2 1-1 7h2l-1-16z" fill="#3AAFD0"/>
<path transform="translate(770,1052)" d="m0 0 3 1-12 13-5 6-2-4 2-1 2-4h2v-3h2l1-4 2 1 1-3z" fill="#CDEBFA"/>
<path transform="translate(780,761)" d="m0 0 3 1 1 3-2 1-2 5-3 3-1 2-5 1-2 1-7-2-3-3h11l6-3z" fill="#D3EEFC"/>
<path transform="translate(1643,1609)" d="m0 0v3l-8 11-5 5-9 8-3 1 2-4 12-12 1-2h2l2-4z" fill="#43B2D2"/>
<path transform="translate(1271,1079)" d="m0 0m-2 1 2 1v5l-5 1-1 3h-2v5l-4 6-4-1 6-12 4-5z" fill="#C7E9F8"/>
<path transform="translate(938,1107)" d="m0 0 4 2v2l3-1 2 7 4 3 1 2v3l2 1v5l-4-5-12-16zm9 4 2 2-2 2z" fill="#CAEAFA"/>
<path transform="translate(1304,1076)" d="m0 0 5 1 9 6 4 5-1 3-4-1-1-4-2 1v-2l-5-1v-2l-2-1-1 2v-4l-2-1z" fill="#C8E9F8"/>
<path transform="translate(999,1084)" d="m0 0 4 2h-2l1 4-2 6-8 2v2h-3l2-4z" fill="#CCEBF9"/>
<path transform="translate(1302,971)" d="m0 0h2l-1 4-13 18-4 4v-2l-3-1 5-1-1-4h2v-2l3-2 1-2h2l1-4-1-1 1-3 3-1 2 1z" fill="#46C3DB"/>
<path transform="translate(1221,1251)" d="m0 0 4 4 9 13-1 2h-3l-2-2-2-1v-3h-2l-1-4 1-2h-2z" fill="#CAEAF9"/>
<path transform="translate(858,1168)" d="m0 0 4 1h-2v5h-4l1 3v4l-9 1v2l-3-1 6-7z" fill="#CAEAFA"/>
<path transform="translate(925,947)" d="m0 0 1 3 4 2v3l1 1 2-1-1 5h2v3h2l1 5h-3l-8-12-4-5v-2h3z" fill="#CDEBF9"/>
<path transform="translate(954,995)" d="m0 0 4 1 4 4v3l2 1 4 4h-2v2l5 2-1 3 2 1 1 3h-3l-11-16-5-7z" fill="#C9EAF9"/>
<path transform="translate(1555,1670)" d="m0 0m-3 1 3 1-7 4-13 1-8 3h-10l1-2 27-5z" fill="#41B2D2"/>
<path transform="translate(886,1337)" d="m0 0h1v31l-1 2h-2v-6-1l1-2-1-1 1-2-1-1 1-2-1-1 2-1v-2h-2v-8-1-4z" fill="#D9F0FE"/>
<path transform="translate(1207,723)" d="m0 0 7 1 1 1 4 3 1 2h3v2h2l-1 4-9-5-9-6z" fill="#C7E9F8"/>
<path transform="translate(778,1315)" d="m0 0 2 1-2 5-5 5-5 4-2-1 2-5h3l-1-3 3-1v-2h2v-2z" fill="#CDEBFA"/>
<path transform="translate(1431,741)" d="m0 0h1v28l-2-4v-8l-1-3-3-1-1-5 3-1z" fill="#ECFAFE"/>
<path transform="translate(1454,708)" d="m0 0 3 1v5l4 1v-2h2v2h2l-2 6-4 1-1-2 1-4h-3l1 6h-3z" fill="#3BB1D1"/>
<path transform="translate(1162,1424)" d="m0 0 4 1 4 4v2h5l1 6 1 4-2 2-9-13z" fill="#C3E7F7"/>
<path transform="translate(763,1294)" d="m0 0 2 4v6l-3 5-1 3-2-1v2l-4 1 1-4 4-6 2-9z" fill="#CBEAF9"/>
<path transform="translate(1288,965)" d="m0 0h3v2l-2 2-1 2-3 1v2h2l-1 2-1 1-1 2-2 3-2 1-1 2-3-1 2-5 8-11z" fill="#45C0D9"/>
<path transform="translate(1031,1039)" d="m0 0 1 2h2v2h-2v2h-2l1 3-4 1v5l-3 1-2 3h-3l2-5 9-12z" fill="#CCEBF9"/>
<path transform="translate(1e3 1011)" d="m0 0 3 1-3 1v3h-2l-1 3-3 6h-2v2h-2v2h-2v2h-2l2-4 6-10 2-4z" fill="#3DB3D2"/>
<path transform="translate(803,1103)" d="m0 0 1 2h2l1 5h-2-1l-4 1-1 3-4 3-1 2h-2l-1-3 11-11z" fill="#CCEBFA"/>
<path transform="translate(751,1038)" d="m0 0 1 3-1 2h-2l-2 6v2h-3l-3 6-5-1 6-8z" fill="#C7E9F8"/>
<path transform="translate(814,1218)" d="m0 0 3 1 1 4h-2l-1 6v30l-2 2v-41z" fill="#D7EFFD"/>
<path transform="translate(723,1104)" d="m0 0 3 1-7 8-6 7-3-2h2l1-4-2-1 2-2h5v-3l4-3z" fill="#CFECFB"/>
<path transform="translate(711,1082)" d="m0 0 1 2-1 4 1 2-5 2v3l-9 3 4-6 7-7z" fill="#CEECFB"/>
<path transform="translate(937,930)" d="m0 0 4 1 10 14v2h-3v-2l-3-1 1-2-4-1v-5l-5-1v-4z" fill="#CDEBFA"/>
<path transform="translate(1457,741)" d="m0 0h3l-2 5v3 3l1 7 2 1-2 1 1 2-5-1v-17h2z" fill="#3DB4D2"/>
<path transform="translate(1287,1305)" d="m0 0 5 1 1 2 6 1v1h-21l-1-3 7-1z" fill="#D8F0FE"/>
<path transform="translate(818,1118)" d="m0 0h6l-6 8-7 7-4-4 5-1 1-3 2 1v-2h2z" fill="#D0EDFB"/>
<path transform="translate(1333,630)" d="m0 0 2 1-2 4h-2l-1 2h-3v2l-7-1-1 2-1-4z" fill="#C9EAF9"/>
<path transform="translate(1169,1309)" d="m0 0 4 1 10 14-3 2-4-6-5-2-1-4z" fill="#CFECFB"/>
<path transform="translate(1235,668)" d="m0 0 5 1-1 4-8 1-3 1-5-1 2-2z" fill="#CAEAF9"/>
<path transform="translate(869,1009)" d="m0 0 4 2 2 2 2 1 2 3v3l2 1-2 4-4-5-6-8z" fill="#C7E9F9"/>
<path transform="translate(1129,901)" d="m0 0 3 4-1 2h-2l-1 3-2 3-1 2-3 1-2-3z" fill="#CCEBF9"/>
<path transform="translate(1459,744)" d="m0 0 5 1v6l-5 5h2l-1 2-2-1v-5l-2-1 2-1-2-4z" fill="#46C2DA"/>
<path transform="translate(772,743)" d="m0 0h5l6 9-2 9h-1l-2-10-7-7z" fill="#C1E6F7"/>
<path transform="translate(1308,640)" d="m0 0 3 1-1 5-6-1-1 3h-4l-1-4z" fill="#D8F1FB"/>
<path transform="translate(902,879)" d="m0 0h3l8 12 1 2-5 2-1-4 1-1-4-2 1-2h-2v-3l-2-1z" fill="#C8E9F8"/>
<path transform="translate(974,982)" d="m0 0 4 1 7 11-4 1v-2l-3 1-1-4h-2z" fill="#C9E9F9"/>
<path transform="translate(783,725)" d="m0 0 6 2 7 7 1 3h-6l1-3-3-1v-2l-3 1-1-4-2-1z" fill="#CCEBFA"/>
<path transform="translate(1426,622)" d="m0 0h2l1 5v17h-3z" fill="#EFFBFE"/>
<path transform="translate(1671,1555)" d="m0 0h1v8l-3 3-2 7-2 3h-2l1-5 5-12z" fill="#3DB0D0"/>
<path transform="translate(885,1186)" d="m0 0 2 1v19l-2 1v-4l-2-1 1-4-1-3h3l-2-1v-6z" fill="#DCF2FE"/>
<path transform="translate(1576,1662)" d="m0 0m-3 1h3v2l-5 3-7 2-2 2h-7l1-2 14-5z" fill="#3DB0D0"/>
<path transform="translate(1211,1367)" d="m0 0 4 2 4 5 4 1-1 2-2-1-1 2-3-1v-2l-3 1v-3h-3l1-2-1-1z" fill="#D2EDFC"/>
<path transform="translate(988,778)" d="m0 0 4 2 6 9-1 2h-3v-4l-1 2-3-1v-5h-2z" fill="#D8F0FD"/>
<path transform="translate(733,774)" d="m0 0 5 2v3l2 3v3l2 1-2 2-7-8-2-4z" fill="#CBEBFA"/>
<path transform="translate(1e3 1017)" d="m0 0 2 6 2 2-2 4-3 1v-3l-3-3 1-5z" fill="#40B9D5"/>
<path transform="translate(1221,773)" d="m0 0h4l-1 5-1-2-5 1 1 4-2 2-4 2v-3l6-8z" fill="#D5EFFB"/>
<path transform="translate(1113,1354)" d="m0 0h3v2h2v2l4 2v2l3-1v2l-3 1-1 3-8-11z" fill="#CAEAF9"/>
<path transform="translate(1457,764)" d="m0 0 4 2v5l2 1-3 3h-2l-1 2-2-5 2-5 2 2v-3l-3-1z" fill="#45C1DA"/>
<path transform="translate(875,614)" d="m0 0 4 5 4 6-5 2-1-5h-2l-1-5-2-1h3z" fill="#CBEAFA"/>
<path transform="translate(885,1137)" d="m0 0h2v25l-2-2 1-2-2-1 1-4 1-13-5 4v-3z" fill="#D0EDFB"/>
<path transform="translate(1011,1019)" d="m0 0 4 2-1 4-3 5-3-1-1-4 3-3z" fill="#44BFD9"/>
<path transform="translate(514,1676)" d="m0 0 11 1 10 1 1 2h-14l-8-3z" fill="#48B4D4"/>
<path transform="translate(954,1087)" d="m0 0 8 10-1 3-6-1v-5l-1-3z" fill="#C9EAF9"/>
<path transform="translate(1061,997)" d="m0 0 2 4-3 2 2 1h-3l-2 6-5 1 5-9z" fill="#CEECFA"/>
<path transform="translate(815,892)" d="m0 0h2l2 4-2 2-1 27h-1z" fill="#D1EDFB"/>
<path transform="translate(832,838)" d="m0 0h4l-1 4h-2l-1 5h-2v8h-1v-11l2-5z" fill="#BFE5F6"/>
<path transform="translate(1663,1576)" d="m0 0 1 4-7 12-2-3 6-11z" fill="#4CB6D5"/>
<path transform="translate(888,893)" d="m0 0 2 2 1 5 2 5h-3l-6-9z" fill="#C5E8F8"/>
<path transform="translate(1676,1536)" d="m0 0 1 3-1 11-3 5h-2l1-5 3-13z" fill="#41B2D2"/>
<path transform="translate(1468,737)" d="m0 0 2 1-1 7-1-3h-2v-3h2zm-5 7h2v2l3 1-1 2-2-1v5h-4l1-2 1-3z" fill="#3BB1D1"/>
<path transform="translate(1037,906)" d="m0 0 5 1-6 9-3-3 2-4 2 1z" fill="#C5E8F8"/>
<path transform="translate(750,762)" d="m0 0 3 4 4 5 2 2-5 1-1-3-3 1-1-5z" fill="#CBEBFA"/>
<path transform="translate(1456,716)" d="m0 0h3v5l2-2 2 4-4 4h-2l-1-7z" fill="#47C4DC"/>
<path transform="translate(1032,969)" d="m0 0 3 4-6 5-5 5v-3z" fill="#40B9D5"/>
<path transform="translate(994,1010)" d="m0 0h2l1 7-7 11-1-2 5-11-1-4z" fill="#D5EEFC"/>
<path transform="translate(1529,1676)" d="m0 0h6l-4 3-4 1h-10l1-2z" fill="#4BB6D5"/>
<path transform="translate(1384,955)" d="m0 0 9 6-4 2-4-3h-3l1-4z" fill="#CBEAFA"/>
<path transform="translate(780,761)" d="m0 0 3 1 1 3-2 1-2 5-2 1-2-2zm-6 10 2 1z" fill="#CBEAFA"/>
<path transform="translate(1254,661)" d="m0 0h2l-2 5-4-1 2 1v2h-6v-4z" fill="#C9EAF8"/>
<path transform="translate(947,1118)" d="m0 0h2l2 2 1 2v3l2 1v5l-8-10z" fill="#C2E7F7"/>
<path transform="translate(1302,971)" d="m0 0h2l-1 4-5 7-2-3-1-1 1-3 3-1 2 1z" fill="#45C1DA"/>
<path transform="translate(1360,945)" d="m0 0 3 1-1 17-2-1z" fill="#8FD2E8"/>
<path transform="translate(1011,934)" d="m0 0h3v2h5v3l-2 3-3-1-3-4z" fill="#C1E6F7"/>
<path transform="translate(886,1337)" d="m0 0h1v12l-3 1v-7-1-4z" fill="#DCF2FE"/>
<path transform="translate(761,1305)" d="m0 0 2 1-1 6-3-1v2l-4 1 1-4z" fill="#D3EEFC"/>
<path transform="translate(858,1168)" d="m0 0 4 1h-2v5h-4l1 3-4 2v-4l4-4z" fill="#DBF1FE"/>
<path transform="translate(880,982)" d="m0 0 4 4 2 4-3 1-6-4 2-1z" fill="#CBEBF9"/>
<path transform="translate(1465,748)" d="m0 0 3 3v2h-2l1 4-3 3v-2l-2-1 1-2h-2v-2h4z" fill="#48C4DC"/>
<path transform="translate(1461,713)" d="m0 0h2v2h2l-2 6-4 1-1-2 1-5h2z" fill="#3AB0D0"/>
<path transform="translate(1166,1217)" d="m0 0h4v2l3 1 1 5h-3l-5-7z" fill="#D0EDFB"/>
<path transform="translate(1421,980)" d="m0 0 9 5-1 4v-2l-5 1v-2l-1-4h-2z" fill="#C9E9F9"/>
<path transform="translate(1117,918)" d="m0 0h2v2l-2 1-2 4-3 5-4 2 2-5z" fill="#D0EDF9"/>
<path transform="translate(1458,704)" d="m0 0 2 1v2l4 1-2 4-5 1-1-2z" fill="#40B8D5"/>
<path transform="translate(1461,696)" d="m0 0 6 1-4 4v2h-2v-3l-1 3h-2l1-6z" fill="#3BB0D0"/>
<path transform="translate(845,933)" d="m0 0 4 4 2 4-4 1v-2l-3 1v-4z" fill="#CDEBFB"/>
<path transform="translate(978,761)" d="m0 0 4 5 1 3-2 2v-2l-4-1-1-4z" fill="#D1EDF9"/>
<path transform="translate(1469,731)" d="m0 0 2 1v13h-2v-7l-1 1-3-1 3-3z" fill="#4AC8DE"/>
<path transform="translate(1038,985)" d="m0 0 2 1-2 5-3 3-3-3h2l2-4z" fill="#43BDD7"/>
<path transform="translate(743,787)" d="m0 0h2l3 3 3 1-1 4-8-5z" fill="#BDE5F6"/>
<path transform="translate(684,1358)" d="m0 0h3l1 17h-2l-1-9 1-4-2-1z" fill="#C7E9F9"/>
<path transform="translate(1e3 1011)" d="m0 0 3 1-3 1v3h-2l-1 3h-2l-2 1 2-7 4-1z" fill="#42B5D4"/>
<path transform="translate(1231,756)" d="m0 0h2v5l-3 1v2l-4 1 2-5z" fill="#CAEAF9"/>
<path transform="translate(1403,560)" d="m0 0 3 1 1 3-10 1-1-2z" fill="#3EB5D3"/>
<path transform="translate(1192,812)" d="m0 0 3 1 1 4-5 2-2-1 2-5z" fill="#CDEBFA"/>
<path transform="translate(497,1672)" d="m0 0 10 2 7 1v1h-13z" fill="#3AAFD0"/>
<path transform="translate(1215,1282)" d="m0 0 1 2 3 1 2 5-2 3-5-9z" fill="#CAEBF8"/>
<path transform="translate(975,1158)" d="m0 0 5 2 1 6-4-1-3-4z" fill="#C0E6F7"/>
<path transform="translate(1093,952)" d="m0 0 2 4-7 6-2-1z" fill="#C4E8F7"/>
<path transform="translate(836,830)" d="m0 0 2 2-1 4h-2v2l-4 1 2-6z" fill="#D3EEFC"/>
<path transform="translate(1456,805)" d="m0 0 3 1-1 10-1 5h-1z" fill="#3CB3D2"/>
<path transform="translate(1456,792)" d="m0 0 5 1-2 6-1 2-2-1z" fill="#42BBD7"/>
<path transform="translate(882,751)" d="m0 0 5 2 1 2v6l-4-4-2-3z" fill="#C4E8F7"/>
<path transform="translate(749,1313)" d="m0 0h2v3l-7 1-4-1 1-2z" fill="#CFECFA"/>
<path transform="translate(954,995)" d="m0 0 4 1 4 4-1 4-5-5z" fill="#D1EDFA"/>
<path transform="translate(1103,937)" d="m0 0 1 2 2 1-2 2-1 2-3 1-4 4 2-5z" fill="#CEECF8"/>
</svg>
