<svg viewBox="2.5 608.8753250000001 5465.732356857523 2949.154" version="1.2" xmlns="http://www.w3.org/2000/svg" style="max-height: 500px" width="5465.732356857523" height="2949.154">
	<style>
		.s0 { fill: #ffffff } 
		.s1 { fill: #7fc7a9 } 
		.s2 { fill: #fb7b5e } 
		.s3 { fill: #212223 } 
		.s4 { fill: #a8d8d5 } 
		.s5 { fill: #f35752 } 
		.s6 { fill: #fac85a } 
		.s7 { fill: #feefd4 } 
		.s8 { fill: #fba094 } 
		.s9 { fill: #1f1f1f } 
		.s10 { fill: #232323 } 
		.s11 { fill: #27221f } 
		.s12 { fill: #9c90e2 } 
		.s13 { fill: #808080 } 
		.s14 { fill: #636363 } 
		.s15 { fill: #adadad } 
	</style>
	<g id="BACK">
		<path d="m5497.5 3663.5h-5495v-3659h5495z" class="s0" id="&lt;Path&gt;"/>
	</g>
	<g id="1">
		<g id="&lt;Group&gt;">
			<path d="m2219.91 1265.74h-289.79v-75.13h289.79z" class="s1" id="&lt;Path&gt;"/>
		</g>
		<g id="&lt;Group&gt;">
			<g id="&lt;Group&gt;">
				<path d="m4076.01 1515.81v-134.6h-120.21v134.6h-38.98l99.09 107.59 99.09-107.59z" class="s2" id="&lt;Path&gt;"/>
			</g>
			<g id="&lt;Group&gt;">
				<path d="m4015.91 1627.25c-1.08 0-2.1-0.45-2.83-1.25l-99.09-107.59c-1.03-1.12-1.31-2.75-0.69-4.15 0.61-1.4 1.99-2.3 3.52-2.3h35.14v-130.75c0-2.12 1.72-3.85 3.84-3.85h120.21c2.13 0 3.85 1.73 3.85 3.85v130.75h35.14c1.52 0 2.91 0.9 3.52 2.3 0.61 1.4 0.34 3.03-0.69 4.15l-99.09 107.59c-0.73 0.8-1.76 1.25-2.83 1.25zm-90.31-107.6l90.31 98.07 90.31-98.07h-30.21c-2.12 0-3.85-1.72-3.85-3.84v-130.75h-112.51v130.75c0 2.12-1.72 3.84-3.85 3.84z" class="s3" id="&lt;Compound Path&gt;"/>
			</g>
			<g id="&lt;Group&gt;">
				<path d="m4076.03 1481.56c-2.1 0-3.82-1.69-3.85-3.8-0.02-2.13 1.68-3.87 3.8-3.9 10.06-0.12 20.49-0.26 30.79-0.4 31.44-0.41 61.15-0.8 75.3-0.8 49.46 0 89.69-41.14 89.69-91.71 0-50.57-40.23-91.71-89.69-91.71h-0.73c-16.65-0.02-39.35-0.02-62.93 36.13-1.02 1.56-3.01 2.17-4.72 1.44-1.72-0.73-2.67-2.58-2.25-4.4 7.84-34.46 0.99-68.03-18.8-92.11-17.91-21.8-44.64-33.33-75.23-32.44-49.07 1.41-78.7 20.98-90.59 59.83-0.31 1.04-1.05 1.89-2.02 2.35-0.98 0.47-2.11 0.5-3.11 0.09-4.61-1.88-9.49-2.83-14.5-2.83-17.95 0-33.26 12.11-37.21 29.45-0.23 1.01-0.86 1.88-1.74 2.42-0.88 0.54-1.94 0.71-2.95 0.46-5.48-1.36-11-2.12-15.55-2.12-49.45 0-89.68 41.15-89.68 91.72 0 50.57 40.23 91.71 89.68 91.71 14.62 0 45.02 0.77 77.21 1.6 9.45 0.24 19.02 0.48 28.36 0.71 2.12 0.05 3.8 1.82 3.75 3.94-0.05 2.13-1.82 3.83-3.94 3.75-9.34-0.22-18.91-0.47-28.36-0.71-32.14-0.82-62.5-1.6-77.02-1.6-53.69 0-97.38-44.59-97.38-99.4 0-54.82 43.69-99.41 97.38-99.41 4.18 0 8.87 0.52 13.74 1.51 5.99-18.86 23.45-31.73 43.71-31.73 4.62 0 9.15 0.68 13.52 2.02 13.59-39.34 46.03-60.01 96.48-61.46 33.05-0.94 61.94 11.57 81.4 35.25 18.21 22.16 26.28 51.66 23.01 82.74 22.22-26.18 43.83-26.61 58.97-26.61q0.39 0 0.77 0h0.73c53.7 0 97.39 44.59 97.39 99.41 0 54.81-43.69 99.41-97.39 99.41-14.1 0-43.78 0.39-75.2 0.8-10.3 0.14-20.73 0.27-30.79 0.4q-0.03 0-0.05 0z" class="s3" id="&lt;Path&gt;"/>
			</g>
			<g id="&lt;Group&gt;">
				<path d="m3909.61 1218.65q-0.82 0.01-1.62-0.35c-1.93-0.9-2.76-3.19-1.87-5.12 0.25-0.54 6.32-13.38 21.18-25.46 13.65-11.1 37.62-23.62 74.34-20.29 2.12 0.19 3.68 2.06 3.49 4.18-0.19 2.12-2.07 3.68-4.18 3.49-65.13-5.9-87.63 40.85-87.85 41.33-0.65 1.4-2.04 2.22-3.49 2.22z" class="s3" id="&lt;Path&gt;"/>
			</g>
			<g id="&lt;Group&gt;">
				<path d="m3889.85 1190.15q-0.93 0.01-1.81-0.45c-1.88-1.01-2.58-3.34-1.58-5.21 0.81-1.52 20.37-37.28 59.82-43.66 2.11-0.34 4.08 1.08 4.42 3.18 0.34 2.1-1.09 4.08-3.19 4.41-35.74 5.78-54.08 39.36-54.27 39.7-0.69 1.29-2.02 2.03-3.39 2.03z" class="s3" id="&lt;Path&gt;"/>
			</g>
			<g id="&lt;Group&gt;">
				<path d="m4242.19 1493.01c-1.73 0-3.31-1.18-3.73-2.94-0.51-2.07 0.76-4.15 2.83-4.65 0.3-0.07 14.53-3.67 28.89-13.66 19.01-13.22 29.33-30.89 30.66-52.52 0.13-2.12 1.98-3.74 4.07-3.61 2.12 0.13 3.74 1.96 3.61 4.08-1.47 23.85-13.28 44.09-34.17 58.52-15.6 10.79-30.61 14.52-31.25 14.67q-0.45 0.11-0.91 0.11z" class="s3" id="&lt;Path&gt;"/>
			</g>
			<g id="&lt;Group&gt;">
				<path d="m3825.79 1515.98q-0.15 0-0.3-0.01c-38.29-2.93-59.91-21.97-71.31-37.42-12.34-16.73-15.57-32.64-15.71-33.31-0.41-2.09 0.95-4.11 3.04-4.52 2.09-0.41 4.11 0.95 4.52 3.03 0.05 0.27 3.16 15.19 14.54 30.49 15.19 20.43 37.23 31.89 65.51 34.06 2.12 0.16 3.71 2.01 3.54 4.13-0.15 2.02-1.84 3.55-3.83 3.55z" class="s3" id="&lt;Path&gt;"/>
			</g>
		</g>
		<g id="&lt;Group&gt;">
			<g id="&lt;Group&gt;">
				<path d="m3240.96 1646.24h-139.7c-2.12 0-3.85-1.73-3.85-3.85v-270.58c0-2.12 1.73-3.84 3.85-3.84h139.7c2.12 0 3.85 1.72 3.85 3.84v270.58c0 2.12-1.73 3.85-3.85 3.85zm-135.85-7.7h132v-262.88h-132z" class="s3" id="&lt;Compound Path&gt;"/>
			</g>
			<g id="&lt;Group&gt;">
				<path d="m3413.65 1642.39h-139.7v-361.75h139.7z" class="s4" id="&lt;Path&gt;"/>
			</g>
			<g id="&lt;Group&gt;">
				<path d="m3586.33 1642.39h-139.7v-469.09h139.7z" class="s2" id="&lt;Path&gt;"/>
			</g>
			<g id="&lt;Group&gt;">
				<path d="m3067.12 1278.29c-2.02 0-3.72-1.58-3.84-3.62-0.12-2.12 1.5-3.94 3.62-4.07 0.81-0.05 82.82-5.17 184.12-39.21 93.31-31.35 222.57-94.36 308.52-216.5 1.22-1.74 3.62-2.16 5.36-0.93 1.74 1.22 2.16 3.62 0.93 5.36-38.52 54.74-88.72 102.42-149.2 141.72-48.33 31.4-103.29 57.55-163.37 77.72-102.24 34.32-185.09 39.48-185.91 39.53q-0.12 0-0.23 0z" class="s3" id="&lt;Path&gt;"/>
			</g>
			<g id="&lt;Group&gt;">
				<path d="m3575.91 1091.54c-1.93 0-3.6-1.46-3.82-3.43l-8.3-74.75-83.76 26.53c-2.03 0.64-4.19-0.48-4.83-2.51-0.65-2.02 0.48-4.19 2.5-4.83l88.23-27.94c1.1-0.34 2.3-0.18 3.26 0.44 0.97 0.63 1.6 1.66 1.73 2.8l8.82 79.41c0.24 2.11-1.28 4.02-3.4 4.25q-0.21 0.03-0.43 0.03z" class="s3" id="&lt;Path&gt;"/>
			</g>
		</g>
		<g id="&lt;Group&gt;">
			<path d="m2235.85 1797.21h-138.54c-2.13 0-3.85-1.72-3.85-3.84v-138.55c0-2.12 1.72-3.85 3.85-3.85h138.54c2.13 0 3.85 1.73 3.85 3.85v138.55c0 2.12-1.72 3.84-3.85 3.84zm-134.69-7.69h130.85v-130.85h-130.85z" class="s3" id="&lt;Compound Path&gt;"/>
		</g>
		<g id="&lt;Group&gt;">
			<path d="m2305.13 1856.59h-124.25c-2.13 0-3.85-1.72-3.85-3.85v-124.25c0-2.12 1.72-3.85 3.85-3.85h124.25c2.12 0 3.84 1.73 3.84 3.85v124.25c0 2.13-1.72 3.85-3.84 3.85zm-120.41-7.7h116.56v-116.55h-116.56z" class="s3" id="&lt;Compound Path&gt;"/>
		</g>
		<g id="&lt;Group&gt;">
			<path d="m4353.7 1660.56c-2.15 19.18-19.43 32.98-38.61 30.83-19.17-2.14-32.97-19.43-30.83-38.6 2.15-19.18 19.43-32.98 38.61-30.83 19.17 2.15 32.97 19.43 30.83 38.6z" class="s5" id="&lt;Path&gt;"/>
		</g>
		<g id="&lt;Group&gt;">
			<path d="m3904.18 1832.05c-2.15 19.17-19.43 32.97-38.6 30.83-19.18-2.15-32.98-19.43-30.83-38.61 2.15-19.17 19.43-32.97 38.6-30.83 19.18 2.15 32.98 19.43 30.83 38.61z" class="s1" id="&lt;Path&gt;"/>
		</g>
		<g id="&lt;Group&gt;">
			<path d="m4353.7 1660.56c-2.15 19.18-19.43 32.98-38.61 30.83-19.17-2.14-32.97-19.43-30.83-38.6 2.15-19.18 19.43-32.98 38.61-30.83 19.17 2.15 32.97 19.43 30.83 38.6z" class="s2" id="&lt;Path&gt;"/>
		</g>
		<g id="&lt;Group&gt;">
			<path d="m4161.81 1854.83q-2.18 0-4.39-0.25c-10.29-1.15-19.52-6.24-25.99-14.34-6.46-8.09-9.39-18.22-8.23-28.52 1.15-10.29 6.24-19.52 14.34-25.99 8.09-6.46 18.22-9.38 28.51-8.23 10.3 1.15 19.53 6.24 25.99 14.34 6.47 8.09 9.39 18.22 8.24 28.52-1.16 10.29-6.25 19.52-14.34 25.99-6.94 5.54-15.38 8.48-24.13 8.48zm-0.13-69.88c-7.02 0-13.78 2.36-19.34 6.8-6.49 5.18-10.57 12.58-11.5 20.83-1.9 17.03 10.4 32.44 27.44 34.35 17.02 1.9 32.44-10.4 34.35-27.43 0.92-8.25-1.42-16.37-6.6-22.86-5.18-6.49-12.58-10.57-20.83-11.49q-1.77-0.2-3.52-0.2z" class="s3" id="&lt;Compound Path&gt;"/>
		</g>
		<g id="&lt;Group&gt;">
			<path d="m3904.18 1832.05c-2.15 19.17-19.43 32.97-38.6 30.83-19.18-2.15-32.98-19.43-30.83-38.61 2.15-19.17 19.43-32.97 38.6-30.83 19.18 2.15 32.98 19.43 30.83 38.61z" class="s4" id="&lt;Path&gt;"/>
		</g>
		<g id="&lt;Group&gt;">
			<path d="m3900.32 1810.04c-1.12 0-2.24-0.49-3-1.44-1.33-1.66-1.07-4.08 0.59-5.41 0.33-0.26 33.26-26.67 67.53-52.53 70.46-53.2 77.82-52.36 80.96-52.02 3.1 0.35 10.37 1.16 51.47 44.25 19.89 20.85 38.27 41.78 38.45 41.99 1.4 1.6 1.24 4.03-0.36 5.43-1.59 1.4-4.03 1.24-5.43-0.36-35.44-40.41-76.93-82.75-84.99-83.66-1.99 0.03-13.64 3.79-76.34 51.17-33.85 25.58-66.15 51.47-66.47 51.73-0.71 0.57-1.56 0.85-2.41 0.85z" class="s3" id="&lt;Path&gt;"/>
		</g>
		<g id="&lt;Group&gt;">
			<path d="m4191.16 1795.3c-0.93 0-1.86-0.33-2.6-1-1.57-1.44-1.68-3.87-0.24-5.44l99.35-108.83c1.43-1.58 3.87-1.68 5.44-0.25 1.57 1.43 1.68 3.86 0.24 5.43l-99.35 108.84c-0.76 0.83-1.8 1.25-2.84 1.25z" class="s3" id="&lt;Path&gt;"/>
		</g>
		<g id="&lt;Group&gt;">
			<path d="m4423.13 1696.59c-16.84 0-62.44-33.31-71.64-40.16-1.7-1.27-2.06-3.68-0.79-5.39 1.27-1.7 3.68-2.05 5.39-0.78 20.82 15.5 57.29 39.6 67.23 38.63 3.47-1.53 20.95-16.85 107.59-122.62 48.32-58.98 94.99-117.85 95.45-118.44 1.32-1.67 3.74-1.95 5.41-0.63 1.66 1.32 1.94 3.74 0.62 5.41-0.47 0.6-48.22 60.84-97.17 120.54-99.93 121.91-107.18 122.88-110.67 123.35q-0.67 0.09-1.42 0.09z" class="s3" id="&lt;Compound Path&gt;"/>
		</g>
		<g id="&lt;Group&gt;">
			<path d="m4615.38 1595.34q-0.44 0.01-0.87-0.1c-2.07-0.47-3.37-2.54-2.89-4.61 0.08-0.34 7.78-33.75 13.04-67.78 9.96-64.36 1.9-70.07 0.95-70.51-2.39-1.1-14.63-2.23-71.85 29.4-31.22 17.26-60.5 35.83-60.79 36.02-1.79 1.14-4.17 0.61-5.31-1.18-1.14-1.8-0.61-4.18 1.18-5.32 0.3-0.18 29.77-18.88 61.2-36.25 58.33-32.25 72.9-32.37 78.79-29.66 6.78 3.13 13.31 14.9 3.43 78.71-5.31 34.31-13.06 67.97-13.14 68.3-0.41 1.78-1.99 2.98-3.74 2.98z" class="s3" id="&lt;Path&gt;"/>
		</g>
		<g id="&lt;Group&gt;">
			<g id="&lt;Group&gt;">
				<g id="&lt;Group&gt;">
					<path d="m1385.91 2106.38c-52.62 0-95.43-44.05-95.43-98.19 0-54.13 42.81-98.18 95.43-98.18 52.62 0 95.42 44.05 95.42 98.18 0 54.14-42.8 98.19-95.42 98.19zm0-188.67c-48.37 0-87.73 40.59-87.73 90.48 0 49.9 39.36 90.49 87.73 90.49 48.37 0 87.73-40.59 87.73-90.49 0-49.89-39.36-90.48-87.73-90.48z" class="s3" id="&lt;Compound Path&gt;"/>
				</g>
				<g id="&lt;Group&gt;">
					<path d="m1398.03 2138.63q-4.09 0-8.22-0.27c-68-4.3-119.28-57.17-119.28-122.99 0-67.83 53.62-123.01 119.52-123.01 31.57 0 63.47 13.94 87.51 38.25 24.13 24.39 37.97 56.9 37.97 89.17 0 33.59-13.53 65.57-37.12 87.72-21.55 20.23-49.84 31.13-80.38 31.13zm-7.98-238.57c-61.66 0-111.82 51.72-111.82 115.31 0 61.7 48.18 111.27 112.07 115.31 31.52 1.99 60.93-8.23 82.84-28.8 22.05-20.7 34.7-50.62 34.7-82.1 0-63.78-55.04-119.72-117.79-119.72z" class="s3" id="&lt;Compound Path&gt;"/>
				</g>
				<g id="&lt;Group&gt;">
					<path d="m1390.24 2137.29q-0.96-0.01-1.2-0.02c-2.12-0.1-3.76-1.9-3.67-4.03 0.1-2.12 1.92-3.77 4.02-3.66 0.71 0.02 50.6 1.28 89.3-56.77 38.06-57.08 13.25-109.29 12.99-109.81-0.93-1.91-0.14-4.22 1.76-5.15 1.91-0.94 4.22-0.15 5.15 1.76 0.29 0.58 6.96 14.42 8.66 35.87 1.56 19.73-1.02 49.91-22.15 81.6-38.4 57.59-86.48 60.21-94.86 60.21z" class="s3" id="&lt;Path&gt;"/>
				</g>
				<g id="&lt;Group&gt;">
					<path d="m1454.31 1917.71q-0.6 0-1.21-0.2c-2.02-0.67-3.11-2.85-2.44-4.87l6.09-18.27c-6.51-10.94-20.76-12.06-26.3-12.06-2.71 6.09-6.62 14.52-8.72 16.62-1.5 1.5-3.94 1.5-5.44 0-1.5-1.49-1.51-3.91-0.03-5.41 1.21-1.42 5.11-9.64 8.04-16.48 0.55-1.3 1.78-2.19 3.19-2.32 1.09-0.1 27-2.21 36.89 17.56 0.45 0.91 0.53 1.97 0.2 2.94l-6.61 19.86c-0.54 1.61-2.04 2.63-3.66 2.63z" class="s3" id="&lt;Path&gt;"/>
				</g>
				<g id="&lt;Group&gt;">
					<path d="m1473.6 1906.63c-7.4 0-13.83-2.44-14.24-2.6-1.99-0.77-2.97-3-2.2-4.99 0.77-1.98 3-2.96 4.98-2.19 0.12 0.05 12.5 4.71 19.97 0.03 3.46-2.17 5.39-6.11 5.88-12.03 0.95-11.41-16.42-23.37-34.08-29.29-18.79-6.29-35.81-5.5-40.47 1.88-2.68 4.24-3.15 8.42-1.45 12.78 2.4 6.13 8.21 10.33 10.15 11.11 1.47-0.08 2.92 0.72 3.62 2.12 0.95 1.91 0.18 4.22-1.72 5.17-5.06 2.53-13.41-6.6-13.77-6.99-7.94-8.77-9.16-19.09-3.34-28.3 8.32-13.17 31.82-10.96 49.42-5.06 20.54 6.88 40.66 21.05 39.31 37.22-0.7 8.4-3.89 14.43-9.49 17.93-3.89 2.43-8.39 3.21-12.57 3.21z" class="s3" id="&lt;Path&gt;"/>
				</g>
				<g id="&lt;Group&gt;">
					<path d="m1423.42 1884.61c-1.1 0-2.19-0.47-2.95-1.38-12.73-15.27 0.46-35.55 1.03-36.41 1.18-1.77 3.57-2.25 5.34-1.08 1.76 1.18 2.25 3.56 1.08 5.33-0.11 0.16-10.58 16.38-1.54 27.23 1.36 1.63 1.14 4.06-0.5 5.42-0.71 0.6-1.59 0.89-2.46 0.89z" class="s3" id="&lt;Path&gt;"/>
				</g>
				<g id="&lt;Group&gt;">
					<path d="m1464.24 1898.95c-1.97 0-3.65-1.5-3.83-3.5-0.19-2.1 1.35-3.96 3.45-4.17 0.57-0.07 12.02-1.66 18.85-19.61 0.76-1.99 2.98-2.98 4.97-2.23 1.99 0.76 2.98 2.98 2.23 4.97-8.67 22.76-24.64 24.47-25.32 24.53q-0.18 0.01-0.35 0.01z" class="s3" id="&lt;Path&gt;"/>
				</g>
				<g id="&lt;Group&gt;">
					<path d="m1436.66 1881.3c-1.61 0-3.11-1.02-3.65-2.63-6.25-18.76 6.98-30.65 7.55-31.14 1.6-1.4 4.03-1.24 5.43 0.35 1.4 1.6 1.24 4.02-0.34 5.42-0.45 0.4-9.93 9.15-5.34 22.93 0.67 2.02-0.42 4.2-2.43 4.87q-0.61 0.2-1.22 0.2z" class="s3" id="&lt;Path&gt;"/>
				</g>
				<g id="&lt;Group&gt;">
					<path d="m1416.8 2035.77q-0.7 0-1.39-0.26l-48.54-18.76c-1.21-0.47-2.11-1.52-2.38-2.8-0.25-1.17 0.07-2.39 0.84-3.29 2.3-3.41 18.42-38.38 28.11-59.77 0.87-1.94 3.16-2.79 5.09-1.92 1.94 0.88 2.79 3.16 1.92 5.09-13.42 29.63-22.36 48.74-26.7 57.1l44.44 17.17c1.98 0.76 2.97 2.99 2.2 4.97-0.59 1.53-2.05 2.47-3.59 2.47zm-51.27-25.33q-0.06 0.06-0.16 0.17 0.08-0.09 0.16-0.17z" class="s3" id="&lt;Compound Path&gt;"/>
				</g>
				<g id="&lt;Group&gt;">
					<path d="m1404.66 1971.77c-1.63 0-3.15-1.05-3.67-2.69l-5.12-16.22-13.44 8.4c-1.8 1.12-4.18 0.58-5.3-1.23-1.13-1.8-0.58-4.17 1.22-5.3l17.65-11.03c1.02-0.63 2.26-0.76 3.38-0.35 1.11 0.41 1.98 1.32 2.34 2.45l6.61 20.96c0.64 2.03-0.48 4.19-2.51 4.83q-0.58 0.18-1.16 0.18z" class="s3" id="&lt;Path&gt;"/>
				</g>
				<g id="&lt;Group&gt;">
					<path d="m1403.56 2043.49c-1.73 0-3.29-1.17-3.73-2.92-0.52-2.06 0.74-4.15 2.8-4.67l13.27-3.31-4.84-11.29c-0.84-1.96 0.07-4.22 2.02-5.06 1.95-0.83 4.22 0.07 5.05 2.02l6.62 15.45c0.45 1.04 0.41 2.22-0.09 3.23-0.5 1.01-1.42 1.74-2.51 2.02l-17.65 4.41q-0.48 0.12-0.94 0.12z" class="s3" id="&lt;Path&gt;"/>
				</g>
				<g id="&lt;Group&gt;">
					<path d="m1405.77 1938.12q-0.93 0.01-1.81-0.45c-1.88-1-2.59-3.33-1.59-5.21l4.42-8.27c1-1.88 3.33-2.59 5.2-1.59 1.88 1 2.59 3.33 1.59 5.21l-4.42 8.27c-0.69 1.3-2.02 2.04-3.39 2.04z" class="s3" id="&lt;Path&gt;"/>
				</g>
				<g id="&lt;Group&gt;">
					<path d="m1348.39 2078.79q-0.74 0.01-1.47-0.29c-1.97-0.82-2.89-3.07-2.08-5.03l5.52-13.24c0.82-1.97 3.08-2.89 5.03-2.08 1.96 0.82 2.89 3.07 2.07 5.03l-5.51 13.24c-0.62 1.48-2.05 2.37-3.56 2.37z" class="s3" id="&lt;Path&gt;"/>
				</g>
				<g id="&lt;Group&gt;">
					<path d="m1457.62 2045.69q-0.72 0.01-1.43-0.27l-11.03-4.41c-1.97-0.79-2.93-3.03-2.14-5.01 0.79-1.97 3.02-2.93 5-2.14l11.03 4.41c1.98 0.79 2.94 3.03 2.15 5-0.6 1.51-2.05 2.42-3.58 2.42z" class="s3" id="&lt;Path&gt;"/>
				</g>
				<g id="&lt;Group&gt;">
					<path d="m1324.12 1985.01q-0.69 0.01-1.38-0.25l-14.34-5.52c-1.99-0.76-2.98-2.99-2.21-4.97 0.76-1.99 2.98-2.98 4.97-2.21l14.34 5.51c1.99 0.76 2.98 2.99 2.21 4.97-0.58 1.53-2.04 2.47-3.59 2.47z" class="s3" id="&lt;Path&gt;"/>
				</g>
			</g>
			<g id="&lt;Group&gt;">
				<path d="m1261.83 1922.1c-1.59 0-3.08-0.99-3.64-2.58l-21.07-60.06c-0.54-1.54-0.05-3.25 1.22-4.27 1.27-1.02 3.05-1.13 4.44-0.27l37.41 23.16-3.22-25.73c-0.19-1.54 0.55-3.04 1.89-3.81 1.33-0.78 3-0.68 4.24 0.25l19.22 14.41 0.97-81.97c0.01-1.58 0.99-2.98 2.45-3.55 1.46-0.57 3.13-0.19 4.2 0.96l58.39 62.35 13.33-26.67c0.66-1.3 1.99-2.13 3.45-2.13 1.5 0.02 2.83 0.86 3.47 2.19l12.64 26.34c0.92 1.92 0.11 4.21-1.8 5.13-1.92 0.92-4.22 0.12-5.14-1.8l-9.25-19.26-12.29 24.58c-0.56 1.13-1.64 1.91-2.89 2.09-1.25 0.18-2.5-0.26-3.36-1.18l-55.62-59.39-0.94 79.99c-0.02 1.45-0.85 2.76-2.15 3.41-1.3 0.63-2.85 0.49-4.01-0.38l-18.04-13.53 3.09 24.73c0.19 1.47-0.49 2.91-1.74 3.71-1.24 0.81-2.84 0.82-4.1 0.04l-34.99-21.66 17.47 49.77c0.7 2.01-0.36 4.21-2.36 4.91q-0.64 0.22-1.27 0.22z" class="s3" id="&lt;Path&gt;"/>
			</g>
			<g id="&lt;Group&gt;">
				<path d="m1560.02 1975.84c-1.31 0-2.58-0.67-3.3-1.87-1.1-1.83-0.51-4.19 1.32-5.28l14.76-8.86-14.36-6.46c-1.27-0.57-2.13-1.78-2.26-3.17-0.12-1.38 0.51-2.73 1.66-3.52l47.78-32.73-64.84-4.51c-1.15-0.08-2.2-0.67-2.87-1.61-0.67-0.94-0.88-2.13-0.57-3.24l4.69-17.2c-6.95 1.4-17.9 3.68-21.89 5.01-2.02 0.67-4.2-0.42-4.87-2.44-0.67-2.01 0.42-4.19 2.43-4.86 6.5-2.17 28.04-6.28 28.95-6.46 1.31-0.24 2.65 0.2 3.55 1.17 0.9 0.98 1.23 2.35 0.88 3.63l-5.08 18.65 71.18 4.94c1.63 0.12 3.02 1.25 3.45 2.83 0.43 1.58-0.19 3.26-1.54 4.19l-51.25 35.11 14.83 6.67c1.31 0.59 2.18 1.86 2.26 3.29 0.09 1.43-0.63 2.79-1.86 3.52l-21.07 12.65c-0.62 0.37-1.31 0.55-1.98 0.55z" class="s3" id="&lt;Path&gt;"/>
			</g>
		</g>
		<g id="&lt;Group&gt;">
			<g id="&lt;Group&gt;">
				<path d="m1546.89 1703.2h-651.95c-20.61 0-37.38-16.77-37.38-37.38v-407.39c0-20.61 16.77-37.38 37.38-37.38h651.95c20.62 0 37.39 16.77 37.39 37.38v407.39c0 20.61-16.77 37.38-37.39 37.38zm-651.95-474.46c-16.37 0-29.69 13.32-29.69 29.69v407.39c0 16.37 13.32 29.69 29.69 29.69h651.95c16.37 0 29.69-13.32 29.69-29.69v-407.39c0-16.37-13.32-29.69-29.69-29.69z" class="s3" id="&lt;Compound Path&gt;"/>
			</g>
			<g id="&lt;Group&gt;">
				<path d="m1580.43 1329.01h-719.03c-2.12 0-3.84-1.72-3.84-3.84 0-2.13 1.72-3.85 3.84-3.85h719.03c2.13 0 3.85 1.72 3.85 3.85 0 2.12-1.72 3.84-3.85 3.84z" class="s3" id="&lt;Path&gt;"/>
			</g>
			<g id="&lt;Group&gt;">
				<path d="m994.23 1625.55c-4.1 0-7.98-1.77-10.66-4.86l-94.43-108.8c-4.84-5.57-4.62-13.77 0.51-19.07l94.43-97.51c2.63-2.7 6.15-4.23 9.92-4.29 3.75-0.05 7.33 1.35 10.04 3.97 2.71 2.63 4.23 6.15 4.29 9.92 0.06 3.76-1.35 7.33-3.97 10.04l-85.43 88.21 85.95 99.03c2.47 2.85 3.69 6.48 3.42 10.24-0.27 3.76-1.98 7.2-4.83 9.67-2.56 2.22-5.85 3.45-9.24 3.45zm-0.01-226.83q-0.05 0-0.1 0c-1.72 0.02-3.32 0.72-4.51 1.95l-94.43 97.51c-2.33 2.41-2.43 6.13-0.23 8.67l94.43 108.8c1.22 1.4 2.98 2.21 4.85 2.21 1.54 0 3.03-0.56 4.2-1.58 2.67-2.31 2.96-6.37 0.64-9.05l-90.58-104.35 90.34-93.29c1.19-1.23 1.83-2.85 1.81-4.56-0.03-1.71-0.72-3.31-1.95-4.51-1.21-1.16-2.79-1.8-4.47-1.8z" class="s3" id="&lt;Compound Path&gt;"/>
			</g>
			<g id="&lt;Group&gt;">
				<path d="m1079.41 1625.55c-3.39 0-6.68-1.23-9.25-3.45-5.87-5.1-6.5-14.03-1.4-19.91l85.94-99.03-85.42-88.21c-5.42-5.59-5.27-14.54 0.32-19.96 2.7-2.62 6.28-4.03 10.04-3.97 3.77 0.06 7.29 1.59 9.91 4.29l94.43 97.51c5.13 5.3 5.36 13.5 0.52 19.07l-94.43 108.8c-2.68 3.09-6.57 4.86-10.66 4.86zm0-226.83c-1.67 0-3.25 0.64-4.46 1.8-2.54 2.46-2.6 6.53-0.14 9.07l90.33 93.29-90.57 104.35c-2.32 2.68-2.03 6.74 0.64 9.05 1.17 1.02 2.66 1.58 4.2 1.58 1.86 0 3.63-0.81 4.85-2.22l94.43-108.79c2.2-2.54 2.1-6.26-0.24-8.67l-94.43-97.51c-1.19-1.23-2.79-1.93-4.5-1.95q-0.05 0-0.11 0z" class="s3" id="&lt;Compound Path&gt;"/>
			</g>
			<g id="&lt;Group&gt;">
				<path d="m1038.52 1625.53q-0.13 0-0.26 0c-7.78-0.14-14-6.59-13.85-14.37l3.79-206.27c0.14-7.78 6.6-14.01 14.36-13.85 7.79 0.14 14 6.59 13.86 14.37l-3.79 206.27c-0.15 7.69-6.45 13.85-14.11 13.85zm-0.12-7.69q0.06 0 0.12 0c3.48 0 6.35-2.8 6.41-6.3l3.79-206.27c0.03-1.72-0.61-3.34-1.79-4.57-1.19-1.24-2.79-1.93-4.5-1.97-3.51-0.03-6.47 2.76-6.54 6.3l-3.79 206.27c-0.06 3.54 2.76 6.47 6.3 6.54z" class="s3" id="&lt;Compound Path&gt;"/>
			</g>
			<g id="&lt;Group&gt;">
				<path d="m1518.25 1465.97h-284.06v-83.51h284.06zm-276.36-7.7h268.66v-68.12h-268.66z" class="s3" id="&lt;Compound Path&gt;"/>
			</g>
			<g id="&lt;Group&gt;">
				<path d="m1518.25 1591.92h-284.06v-87.18h284.06zm-276.36-7.69h268.66v-71.79h-268.66z" class="s3" id="&lt;Compound Path&gt;"/>
			</g>
			<g id="&lt;Group&gt;">
				<path d="m1362.53 1277.9c0 13.89-11.27 25.16-25.17 25.16-13.89 0-25.16-11.27-25.16-25.16 0-13.9 11.27-25.17 25.16-25.17 13.9 0 25.17 11.27 25.17 25.17z" class="s6" id="&lt;Path&gt;"/>
			</g>
			<g id="&lt;Group&gt;">
				<path d="m1440.69 1277.9c0 13.89-11.26 25.16-25.16 25.16-13.9 0-25.16-11.27-25.16-25.16 0-13.9 11.26-25.17 25.16-25.17 13.9 0 25.16 11.27 25.16 25.17z" class="s2" id="&lt;Path&gt;"/>
			</g>
			<g id="&lt;Group&gt;">
				<path d="m1518.86 1277.9c0 13.89-11.26 25.16-25.16 25.16-13.9 0-25.17-11.27-25.17-25.16 0-13.9 11.27-25.17 25.17-25.17 13.9 0 25.16 11.27 25.16 25.17z" class="s1" id="&lt;Path&gt;"/>
			</g>
		</g>
		<g id="&lt;Group&gt;">
			<g id="&lt;Group&gt;">
				<path d="m4131.4 2159.26c-27.31 0-49.89-21.83-50.65-49.29-0.77-27.94 21.33-51.3 49.27-52.07 27.98-0.78 51.3 21.33 52.07 49.27 0.77 27.94-21.34 51.3-49.27 52.07q-0.72 0.02-1.42 0.02zm0.03-93.68q-0.6 0-1.2 0.01c-23.69 0.66-42.44 20.47-41.79 44.16 0.32 11.48 5.09 22.15 13.43 30.05 8.34 7.89 19.27 12.08 30.73 11.74 23.7-0.65 42.45-20.46 41.79-44.15-0.64-23.3-19.8-41.81-42.96-41.81z" class="s3" id="&lt;Compound Path&gt;"/>
			</g>
			<g id="&lt;Group&gt;">
				<path d="m4152.09 2108c0.31 11.41-8.69 20.92-20.1 21.24-11.42 0.31-20.92-8.69-21.24-20.1-0.31-11.42 8.68-20.92 20.1-21.24 11.41-0.31 20.92 8.69 21.24 20.1z" class="s1" id="&lt;Path&gt;"/>
			</g>
			<g id="&lt;Group&gt;">
				<path d="m4119.36 2218.42c-1.9 0-3.69-0.71-5.07-2.02-1.44-1.36-2.26-3.19-2.31-5.16l-0.68-24.7c-10.13-2.61-19.53-7.12-27.95-13.4l-17.49 13.54c-1.56 1.21-3.49 1.74-5.45 1.49-1.96-0.25-3.71-1.25-4.91-2.81l-21.38-27.61c-1.2-1.56-1.73-3.49-1.48-5.45 0.25-1.96 1.24-3.71 2.8-4.91l19.12-14.8c-2.2-7.05-3.42-14.39-3.63-21.8-0.23-8.36 0.83-16.64 3.14-24.62l-20.06-13.91c-3.35-2.33-4.18-6.94-1.86-10.29l19.9-28.68c1.13-1.62 2.82-2.71 4.76-3.06 1.94-0.35 3.91 0.07 5.53 1.2l19.63 13.62c6.81-5.32 14.38-9.47 22.5-12.35l-0.7-25.5c-0.06-1.97 0.66-3.85 2.02-5.28 1.36-1.44 3.19-2.26 5.16-2.31l34.9-0.96c2-0.03 3.85 0.66 5.28 2.02 1.44 1.35 2.26 3.19 2.31 5.16l0.7 25.5c9.78 2.87 18.81 7.51 26.85 13.81l18.72-14.49c3.22-2.5 7.87-1.91 10.36 1.32l21.38 27.6c1.2 1.56 1.73 3.5 1.48 5.46-0.25 1.96-1.24 3.7-2.81 4.91l-21.29 16.49c1.85 6.49 2.89 13.19 3.08 19.92 0.19 7.17-0.56 14.3-2.23 21.21l21.62 11.7c1.73 0.94 3 2.5 3.56 4.39 0.57 1.89 0.36 3.89-0.58 5.63l-16.62 30.7c-0.94 1.74-2.5 3-4.39 3.57-1.89 0.56-3.89 0.35-5.62-0.59l-24.11-13.04c-6.78 5.76-14.39 10.33-22.62 13.57l0.73 26.38c0.06 1.97-0.66 3.85-2.02 5.28-1.35 1.43-3.19 2.25-5.16 2.31l-34.9 0.96q-0.11 0-0.21 0zm-36.03-53.04c1.58 0 3.16 0.5 4.49 1.49 7.69 5.77 16.29 9.89 25.56 12.25 3.21 0.82 5.51 3.68 5.6 6.95l0.68 24.65 34.29-0.95-0.73-26.3c-0.08-3.1 1.82-5.94 4.74-7.09 7.54-2.95 14.51-7.13 20.71-12.43 2.36-2.01 5.63-2.37 8.33-0.91l24.04 13.01 16.32-30.17-21.56-11.67c-2.95-1.59-4.45-5.01-3.64-8.3 1.54-6.3 2.23-12.81 2.05-19.35-0.17-6.14-1.12-12.25-2.83-18.17-0.85-2.95 0.16-6.05 2.56-7.91l21.23-16.44-20.99-27.12-18.68 14.46c-2.67 2.07-6.43 2.04-9.12-0.08-7.35-5.77-15.61-10.02-24.56-12.63-3.12-0.91-5.27-3.68-5.36-6.89l-0.7-25.43-34.29 0.94 0.7 25.43c0.09 3.21-1.91 6.1-4.97 7.18-7.45 2.62-14.39 6.43-20.63 11.32-2.59 2.03-6.12 2.14-8.79 0.29l-19.58-13.58-19.55 28.18 20 13.87c2.61 1.81 3.76 5.1 2.85 8.18-2.11 7.26-3.08 14.81-2.87 22.42 0.18 6.76 1.3 13.44 3.32 19.86 0.94 2.96-0.07 6.22-2.5 8.09l-19.05 14.76 20.99 27.12 17.45-13.51c1.31-1.01 2.9-1.52 4.49-1.52z" class="s3" id="&lt;Compound Path&gt;"/>
			</g>
		</g>
		<g id="&lt;Group&gt;">
			<path d="m2688.76 1332.49q-4.54 0-9.1-0.79c-28.34-4.96-47.37-32.05-42.41-60.39 4.96-28.34 32.05-47.38 60.39-42.41 13.73 2.4 25.7 10 33.71 21.41 8.01 11.4 11.1 25.25 8.7 38.98-2.4 13.72-10 25.7-21.41 33.71-8.88 6.24-19.24 9.49-29.88 9.49zm-0.13-96.68c-21.2 0-40.02 15.24-43.8 36.83-2.05 11.7 0.59 23.5 7.42 33.22 6.83 9.73 17.03 16.21 28.74 18.26 11.71 2.04 23.5-0.59 33.23-7.42 9.72-6.83 16.2-17.04 18.25-28.74 2.05-11.7-0.59-23.5-7.42-33.23-6.83-9.72-17.03-16.2-28.74-18.25q-3.87-0.67-7.68-0.67z" class="s3" id="&lt;Compound Path&gt;"/>
		</g>
		<g id="&lt;Group&gt;">
			<path d="m2688.66 1305.48q-2.15 0-4.35-0.38c-6.62-1.16-12.4-4.83-16.27-10.33-3.86-5.5-5.35-12.19-4.19-18.81 1.15-6.63 4.82-12.4 10.33-16.27 5.5-3.87 12.18-5.36 18.81-4.2 6.62 1.16 12.4 4.83 16.27 10.34 3.86 5.5 5.35 12.18 4.19 18.8-2.13 12.22-12.79 20.85-24.79 20.85zm-0.05-42.67c-3.56 0-7.03 1.09-10.01 3.18-3.82 2.68-6.37 6.69-7.17 11.29-0.81 4.61 0.23 9.24 2.91 13.07 2.69 3.82 6.7 6.36 11.3 7.17 4.6 0.8 9.24-0.23 13.06-2.92 3.82-2.68 6.37-6.69 7.17-11.29 0.81-4.6-0.23-9.24-2.91-13.06-2.69-3.82-6.7-6.37-11.3-7.18q-1.53-0.26-3.05-0.26z" class="s3" id="&lt;Compound Path&gt;"/>
		</g>
		<g id="&lt;Group&gt;">
			<path d="m2690.89 1395.13q-0.65 0-1.31-0.11l-35.48-6.21c-1.98-0.34-3.7-1.44-4.85-3.08-1.15-1.64-1.6-3.63-1.25-5.6l4.41-25.21c-9.75-4.73-18.37-11.24-25.62-19.37l-20.55 10.13c-1.79 0.89-3.83 1.02-5.72 0.38-1.9-0.64-3.44-1.99-4.32-3.79l-15.93-32.31c-1.83-3.71-0.3-8.21 3.41-10.04l22.45-11.07c-0.79-7.61-0.52-15.29 0.8-22.84 1.49-8.51 4.27-16.68 8.27-24.29l-17.48-18.26c-1.39-1.45-2.13-3.35-2.08-5.35 0.04-2 0.86-3.87 2.31-5.26l26.02-24.91c2.99-2.86 7.75-2.76 10.61 0.23l17.11 17.88c8.02-4 16.58-6.66 25.42-7.9l4.55-26.02c0.35-1.97 1.44-3.69 3.08-4.84 1.64-1.16 3.64-1.6 5.61-1.25l35.48 6.2c1.97 0.35 3.7 1.44 4.85 3.08 1.15 1.64 1.6 3.63 1.25 5.6l-4.55 26.02c9.34 4.93 17.55 11.51 24.41 19.57l21.99-10.85c3.71-1.83 8.22-0.3 10.05 3.41l15.93 32.31c0.88 1.8 1.02 3.84 0.37 5.73-0.64 1.9-1.99 3.43-3.78 4.32l-25 12.33c0.55 6.95 0.22 13.96-0.98 20.83-1.28 7.3-3.51 14.38-6.65 21.04l19.53 16.34c1.54 1.28 2.48 3.09 2.66 5.09 0.17 1.99-0.44 3.94-1.72 5.48l-23.12 27.63c-1.28 1.53-3.09 2.48-5.09 2.65-1.99 0.17-3.94-0.43-5.48-1.72l-21.75-18.2c-8.08 4.46-16.75 7.53-25.78 9.11l-4.71 26.91c-0.34 1.97-1.43 3.69-3.07 4.85-1.28 0.89-2.77 1.36-4.3 1.36zm-35.28-13.87l35.11 6.14 4.69-26.86c0.55-3.1 3.02-5.55 6.15-6.09 8.25-1.44 16.16-4.24 23.53-8.33 2.76-1.53 6.09-1.22 8.48 0.78l21.72 18.18 22.87-27.33-19.5-16.32c-2.61-2.18-3.41-5.88-1.94-9 2.86-6.06 4.9-12.51 6.07-19.17 1.09-6.25 1.39-12.64 0.88-18.99-0.25-3.1 1.37-5.99 4.14-7.35l24.96-12.31-15.76-31.96-21.96 10.83c-3.09 1.52-6.81 0.73-9.06-1.92-6.26-7.36-13.75-13.37-22.28-17.85-2.92-1.54-4.5-4.73-3.94-7.94l4.54-25.98-35.1-6.14-4.54 25.98c-0.56 3.21-3.14 5.68-6.41 6.13-8.07 1.12-15.89 3.55-23.21 7.21-2.99 1.5-6.53 0.9-8.81-1.49l-17.09-17.84-25.74 24.64 17.45 18.23c2.23 2.33 2.71 5.83 1.19 8.71-3.64 6.92-6.18 14.36-7.54 22.11-1.2 6.88-1.44 13.89-0.72 20.81 0.33 3.13-1.33 6.17-4.12 7.55l-22.41 11.04 15.76 31.96 20.52-10.11c3.01-1.49 6.68-0.75 8.94 1.78 6.61 7.43 14.47 13.37 23.36 17.68 3.03 1.46 4.75 4.77 4.18 8.05z" class="s3" id="&lt;Compound Path&gt;"/>
		</g>
		<g id="&lt;Group&gt;">
			<path d="m1904.75 1269.59h-75.13c-2.12 0-3.85-1.73-3.85-3.85v-75.13c0-2.13 1.73-3.85 3.85-3.85h75.13c2.13 0 3.85 1.72 3.85 3.85v75.13c0 2.12-1.72 3.85-3.85 3.85zm-71.28-7.7h67.43v-67.43h-67.43z" class="s3" id="&lt;Compound Path&gt;"/>
		</g>
		<g id="&lt;Group&gt;">
			<path d="m2219.91 1265.74h-289.79v-75.13h289.79z" class="s4" id="&lt;Path&gt;"/>
		</g>
		<g id="&lt;Group&gt;">
			<path d="m1902.8 1393.5h-75.13c-2.13 0-3.85-1.72-3.85-3.84v-75.14c0-2.12 1.72-3.84 3.85-3.84h75.13c2.12 0 3.85 1.72 3.85 3.84v75.14c0 2.12-1.73 3.84-3.85 3.84zm-71.28-7.69h67.43v-67.44h-67.43z" class="s3" id="&lt;Compound Path&gt;"/>
		</g>
		<g id="&lt;Group&gt;">
			<path d="m2217.96 1393.5h-289.79c-2.13 0-3.85-1.72-3.85-3.84v-75.14c0-2.12 1.72-3.84 3.85-3.84h289.79c2.12 0 3.85 1.72 3.85 3.84v75.14c0 2.12-1.73 3.84-3.85 3.84zm-285.94-7.69h282.09v-67.44h-282.09z" class="s3" id="&lt;Compound Path&gt;"/>
		</g>
		<g id="&lt;Group&gt;">
			<path d="m1900.85 1517.42h-75.13c-2.13 0-3.85-1.72-3.85-3.85v-75.13c0-2.12 1.72-3.85 3.85-3.85h75.13c2.12 0 3.85 1.73 3.85 3.85v75.13c0 2.13-1.73 3.85-3.85 3.85zm-71.28-7.7h67.43v-67.43h-67.43z" class="s3" id="&lt;Compound Path&gt;"/>
		</g>
		<g id="&lt;Group&gt;">
			<path d="m2216.01 1517.42h-289.79c-2.13 0-3.85-1.72-3.85-3.85v-75.13c0-2.12 1.72-3.85 3.85-3.85h289.79c2.12 0 3.85 1.73 3.85 3.85v75.13c0 2.13-1.73 3.85-3.85 3.85zm-285.94-7.7h282.09v-67.43h-282.09z" class="s3" id="&lt;Compound Path&gt;"/>
		</g>
		<g id="&lt;Group&gt;">
			<path d="m1866.14 1251.19q-0.72 0-1.45-0.2c-2.83-0.78-6.95-3.98-17.82-21.93-5.78-9.53-10.84-18.98-10.89-19.07-1-1.88-0.29-4.21 1.58-5.21 1.88-1 4.21-0.3 5.21 1.58 7.87 14.7 18.04 31.33 22.7 36.09 7.1-11.9 33.35-70.88 49.41-108.01 0.85-1.95 3.11-2.85 5.06-2.01 1.95 0.85 2.85 3.11 2 5.07-0.11 0.27-11.86 27.41-24.04 54.56-25.14 55.99-27.5 57.41-29.22 58.44-0.77 0.46-1.64 0.69-2.54 0.69z" class="s3" id="&lt;Path&gt;"/>
		</g>
		<g id="&lt;Group&gt;">
			<g id="&lt;Group&gt;">
				<g id="&lt;Group&gt;">
					<path d="m3193.86 1930.69q1.11 17.85-2.4 32.17-3.5 14.32-10.92 26.72-7.42 12.41-24.93 29.75l-15.05 15.03q-13.56 13.28-19.68 27.39-3.2 7.38-4.5 15.33c-1.47 8.96-7.91 15.43-15.57 15.91-11.79 0.73-21-12.65-17.97-26.2q0.18-0.82 0.38-1.61 3.11-12.62 8.69-22.53 5.58-9.9 12.88-17.88 7.29-7.99 14.83-15.26 7.54-7.28 14.79-14.55 7.24-7.25 12.69-15.96 5.46-8.7 8.49-19.4 3.03-10.7 2.15-24.75-1.69-27.13-18.1-41.88-16.4-14.74-44.28-13.01-27.87 1.74-43.15 19.42-10.92 12.63-14.54 31.14c-1.79 9.12-8.36 15.64-16.24 15.52l-2.27-0.04c-11.21-0.17-19.59-12.91-16.93-25.84q6.12-29.62 23.45-48.76 24.31-26.84 66.91-29.49 44.4-2.77 71.45 20.75 27.04 23.53 29.82 68.03z" class="s4" id="&lt;Path&gt;"/>
				</g>
				<g id="&lt;Group&gt;">
					<path d="m3077.15 2140.56l-0.45-7.32c-0.77-12.27 8.81-22.86 21.4-23.64l5.91-0.37c12.59-0.78 23.41 8.53 24.17 20.8l0.46 7.32c0.76 12.27-8.82 22.86-21.4 23.64l-5.92 0.37c-12.58 0.79-23.4-8.53-24.17-20.8z" class="s4" id="&lt;Path&gt;"/>
				</g>
			</g>
		</g>
		<g id="&lt;Group&gt;">
			<g id="&lt;Group&gt;">
				<path d="m3878.49 2103.69q-1.25 0-2.52-0.2c-5.38-0.83-10.06-4.3-12.85-9.51-3.45-6.45-3.59-14.44-0.36-21.36q0.31-0.68 0.64-1.36c3.46-7.01 7.53-13.16 12.09-18.27 4.54-5.09 9.54-9.56 14.84-13.3 5.13-3.62 10.36-7.08 15.55-10.27 5.28-3.26 10.37-6.45 15.1-9.5 4.72-3.02 9.09-6.58 13.01-10.58 3.87-3.95 7.27-8.63 10.11-13.94 2.81-5.24 4.82-11.72 5.99-19.26 2.22-14.37-0.08-26.44-6.85-35.87-6.76-9.4-17.67-15.33-32.44-17.62-14.97-2.31-27.12 0.2-37.13 7.68-7.12 5.33-12.78 12.74-16.81 22.05-4 9.22-12.63 14.29-21 12.31l-1.9-0.45c-5.13-1.21-9.36-4.71-11.91-9.86-3.08-6.2-3.16-13.83-0.23-20.4 7.34-16.48 17.47-29.39 30.1-38.39 17.76-12.65 39.55-17.09 64.77-13.18 26.23 4.06 46.07 14.91 58.97 32.24 12.9 17.36 17.37 39.51 13.29 65.84-1.62 10.51-4.42 19.87-8.32 27.82-3.88 7.93-8.87 15.16-14.82 21.48-5.9 6.27-15.09 13.38-27.29 21.11l-15.48 9.9c-8.83 5.52-15.76 11.74-20.63 18.49-2.51 3.48-4.6 7.28-6.18 11.27-3.19 8.02-10.25 13.13-17.74 13.13zm22.21-189.55q5.44 0 11.28 0.91c16.89 2.61 29.51 9.59 37.51 20.73 7.99 11.13 10.75 25.1 8.21 41.54-1.31 8.4-3.6 15.71-6.81 21.72-3.19 5.94-7.02 11.22-11.4 15.69-4.32 4.41-9.15 8.33-14.35 11.67-4.77 3.07-9.9 6.29-15.22 9.57-5.06 3.11-10.15 6.48-15.16 10.01-4.82 3.4-9.37 7.48-13.52 12.13-4.11 4.6-7.78 10.16-10.93 16.55q-0.29 0.59-0.58 1.2c-2.17 4.67-2.1 10.22 0.18 14.49 1.66 3.11 4.23 5.07 7.24 5.54 4.81 0.75 9.71-2.61 11.92-8.17 1.83-4.58 4.21-8.93 7.1-12.94 5.45-7.56 13.11-14.45 22.76-20.49l15.45-9.88c11.68-7.4 20.36-14.09 25.82-19.89 5.42-5.77 9.97-12.36 13.52-19.6 3.55-7.25 6.12-15.86 7.63-25.61 3.75-24.21-0.25-44.42-11.87-60.06-11.64-15.66-29.8-25.5-53.97-29.24-23.16-3.58-43.06 0.4-59.13 11.85-11.49 8.19-20.75 20.05-27.53 35.25-2.01 4.5-1.97 9.68 0.1 13.85 1.51 3.06 3.92 5.12 6.77 5.79l1.91 0.45c4.67 1.11 9.68-2.14 12.17-7.88 4.57-10.55 11.05-19.01 19.26-25.15 8.92-6.67 19.53-10.03 31.64-10.03z" class="s3" id="&lt;Compound Path&gt;"/>
			</g>
			<g id="&lt;Group&gt;">
				<path d="m3872.51 2162.38q-1.83 0-3.7-0.29l-5.06-0.78c-6.2-0.96-11.68-4.23-15.41-9.2-3.75-5-5.3-11.12-4.35-17.23 0 0 0.96-6.26 0.96-6.26 0.95-6.11 4.28-11.48 9.37-15.11 5.06-3.6 11.26-5.06 17.47-4.1l5.06 0.78c6.21 0.96 11.68 4.23 15.41 9.2 3.76 5 5.3 11.12 4.36 17.23l-0.97 6.26c-1.76 11.37-11.76 19.5-23.14 19.5zm-4.44-45.56c-3.33 0-6.56 1.02-9.29 2.96-3.38 2.41-5.59 5.97-6.22 10.02l-0.97 6.26c-0.62 4.04 0.41 8.1 2.9 11.43 2.52 3.35 6.23 5.56 10.44 6.21l5.06 0.79c8.65 1.34 16.75-4.4 18.05-12.79l0.97-6.26c0.63-4.05-0.4-8.11-2.9-11.43-2.52-3.36-6.23-5.56-10.44-6.21l-5.06-0.79q-1.27-0.19-2.54-0.19z" class="s3" id="&lt;Compound Path&gt;"/>
			</g>
		</g>
	</g>
	<g id="PEOPLE">
		<g id="&lt;Group&gt;">
			<g id="&lt;Group&gt;">
				<g id="&lt;Group&gt;">
					<path d="m2988.38 2158.8c-65.99-192.46-231.83-222.48-256.8-225.95-2.34-1.01-3.63-1.29-3.63-1.29l-168.26-28.78c0 0-5.63 4.56-15.14 14.66-61.01-7.26-241.58-26.08-290.06 132.67-53.09 173.84-135.39 418.29-34.17 537.37 24.69 29.06 66.05 51.37 115.67 67.91 2.3 123.2 24.06 174.31 24.06 174.31l537.69-92.36 224.31-37.39c0 0-62.22-332.76-133.67-541.15z" class="s7" id="&lt;Path&gt;"/>
				</g>
				<g id="&lt;Group&gt;">
					<path d="m3045.08 2511.93c0 0-26.58-38.86-101.53 16.03l-164.57 12.56-6.04 41.23 193.52-10.99z" class="s8" id="&lt;Path&gt;"/>
				</g>
				<g id="&lt;Group&gt;">
					<path d="m2985.15 2543.27c0 0 48.38-35.19 75.87-31.89 27.49 3.3 11.42 33.38 11.42 33.38z" class="s8" id="&lt;Path&gt;"/>
				</g>
				<g id="&lt;Group&gt;">
					<path d="m2820.22 2570.02c0 0 92.54-80.02 116.65-55.92 20.72 20.73-21.21 44.35-80.98 80.98z" class="s8" id="&lt;Path&gt;"/>
				</g>
				<g id="&lt;Group&gt;">
					<path d="m2524.57 1915.26c0 0-20.48 131.55 156.55 140.35 177.03 8.8 47.28-123.15 47.28-123.15 0 0-146.24-20.89-203.83-17.2z" class="s8" id="&lt;Path&gt;"/>
				</g>
				<g id="&lt;Group&gt;">
					<path d="m2779.53 1534.97c0 0-33.53-70.92-77.52-78.62-48.25-8.44-122.05-13.19-178.12 78.07-63.89 103.97-59.38 169.33-143.5 286.44-9.11 12.69 59.38 58.27 113.26 75.86 0 0 24.19-40.68 31.89-68.17 0 0-14.3 69.27-19.8 74.77 0 0 29.4 25.69 57.58 16.15 28.19-9.55 49.08-275.38 49.08-275.38z" class="s4" id="&lt;Path&gt;"/>
				</g>
				<g id="&lt;Group&gt;">
					<path d="m2734.9 1477.06c0 0 66.86-10.2 101.81 49.11 59.93 101.71-19.79 319.97-9.35 412.89 0 0-70.37 0-103.37-36.28l55.54-367.81z" class="s4" id="&lt;Path&gt;"/>
				</g>
				<g id="&lt;Group&gt;">
					<path d="m2719.61 1853.29l15.39 173.73c0 0-108.85 18.7-175.93-61.57l24.19-261.7z" class="s8" id="&lt;Path&gt;"/>
				</g>
				<path d="m2728.4 1863.19l-145.14-150.64-3.3 19.79c0 0 32.35 53.03 69.28 98.96 45.08 56.08 74.77 90.16 74.77 90.16z" class="s9" id="&lt;Path&gt;"/>
				<g id="&lt;Group&gt;">
					<path d="m2583.26 1712.55c-12.09 24.19 108.22 162.15 169.33 153.94 73.68-9.9 105.05-238.19 63.78-293.59-41.27-55.39-176.3-65.11-210.47 70.99z" class="s8" id="&lt;Path&gt;"/>
				</g>
				<g id="&lt;Group&gt;">
					<path d="m2605.9 1643.89c0 0 172.48 9.84 173.08-107.27 0.22-42.56-37.38-60.48-37.38-60.48 0 0-231.81 5.63-135.7 167.75z" class="s4" id="&lt;Path&gt;"/>
				</g>
				<g id="&lt;Group&gt;">
					<path d="m2621.75 1674.06c0 21.26-17.23 38.49-38.49 38.49-21.25 0-38.48-17.23-38.48-38.49 0-21.25 17.23-38.48 38.48-38.48 21.26 0 38.49 17.23 38.49 38.48z" class="s8" id="&lt;Path&gt;"/>
				</g>
				<path d="m2436.47 2211.2l1.65 254.55-20.34-2.75z" class="s10" id="&lt;Path&gt;"/>
				<g id="&lt;Group&gt;">
					<path d="m2931.93 2550.55c0 0 144.5-46.24 152.73 6.46 5.5 35.19-152.84 65.97-297.98 95.66l-9.9-91.26z" class="s8" id="&lt;Path&gt;"/>
				</g>
				<path d="m2745.65 1686.95c-1.63 8.06-7.58 13.67-13.29 12.52-5.71-1.16-9.02-8.63-7.39-16.7 1.63-8.06 7.58-13.67 13.29-12.52 5.71 1.16 9.01 8.63 7.39 16.7z" class="s11" id="&lt;Path&gt;"/>
				<g id="&lt;Group&gt;">
					<path d="m2752.59 1682.31c-0.85 0-1.72-0.28-2.43-0.87-15.52-12.7-28.35-4.05-28.88-3.68-1.74 1.21-4.14 0.79-5.36-0.94-1.22-1.73-0.82-4.11 0.9-5.34 6.15-4.39 22.06-9.21 38.21 4 1.65 1.35 1.89 3.77 0.54 5.42-0.76 0.93-1.86 1.41-2.98 1.41z" class="s11" id="&lt;Path&gt;"/>
				</g>
				<path d="m2836.91 1701.24c-1.63 8.07-7.58 13.67-13.29 12.52-5.71-1.15-9.02-8.63-7.39-16.69 1.63-8.07 7.58-13.67 13.29-12.52 5.71 1.15 9.02 8.62 7.39 16.69z" class="s11" id="&lt;Path&gt;"/>
				<g id="&lt;Group&gt;">
					<path d="m2843.86 1696.6c-0.86 0-1.72-0.28-2.44-0.87-15.52-12.69-28.34-4.05-28.88-3.68-1.74 1.21-4.14 0.8-5.35-0.93-1.22-1.73-0.83-4.11 0.89-5.34 6.16-4.4 22.06-9.22 38.22 4 1.64 1.34 1.88 3.77 0.54 5.41-0.76 0.93-1.87 1.41-2.98 1.41z" class="s11" id="&lt;Path&gt;"/>
				</g>
				<g id="&lt;Group&gt;">
					<path d="m2776.5 1744.55c-1.36 0-2.68-0.72-3.38-2.01-1.02-1.86-0.33-4.2 1.53-5.22l15.37-8.38c-4.57-11.23-5.74-29.09-5.79-29.93-0.14-2.12 1.48-3.95 3.6-4.08 2.15-0.13 3.94 1.48 4.08 3.6 0.37 5.87 2.26 22.72 6.49 30.13 0.52 0.9 0.65 1.97 0.37 2.96-0.28 1-0.95 1.84-1.86 2.33l-18.57 10.13q-0.89 0.48-1.84 0.47z" class="s11" id="&lt;Path&gt;"/>
				</g>
				<g id="&lt;Group&gt;">
					<path d="m2766.65 1818.16q-0.85 0-1.68-0.06c-10.35-0.74-22.22-8.04-28.87-17.74-4.65-6.79-6.15-13.97-4.23-20.22 0.53-1.72 2.17-2.85 3.97-2.71 0.14 0.01 15.06 1.12 29.79 2.62 8.69 0.89 15.63 1.74 20.62 2.52 7.77 1.22 12.53 2.19 12.53 6.4 0 5.89-4.27 13.66-10.86 19.8-6.54 6.1-14.04 9.39-21.27 9.39zm-27.89-32.79c-0.08 3.3 1.18 6.97 3.69 10.64 5.33 7.77 15.03 13.84 23.06 14.41 7.56 0.55 14-4.33 17.16-7.28 4.4-4.09 7.12-8.65 8.05-11.93-7.12-1.72-30.17-4.15-51.96-5.84z" class="s11" id="&lt;Compound Path&gt;"/>
				</g>
				<path d="m2719.06 1647.12c0 0 18.69-5.49 36.28 3.3 17.6 8.8 6.6-34.08-36.28-3.3z" class="s11" id="&lt;Path&gt;"/>
				<path d="m2855.95 1678.46c0 0-12.86-8.9-32.5-7.78-19.64 1.11 5.3-37.46 32.5 7.78z" class="s11" id="&lt;Path&gt;"/>
				<g id="&lt;Group&gt;">
					<path d="m2582.33 1696.28c-10.18 0-17.41-4.93-19.69-13.67-2.72-10.42 2.58-23.52 10.91-26.95 6.51-2.68 11.99-2.57 16.29 0.31 7.5 5.02 7.72 16.28 7.72 17.54 0 2.13-1.73 3.85-3.85 3.85-2.12 0-3.85-1.71-3.85-3.84-0.01-2.31-0.81-8.83-4.32-11.16-2.03-1.36-5.08-1.22-9.06 0.42-4.36 1.79-8.24 10.79-6.39 17.89 2 7.67 9.51 8.43 15.46 7.72 2.12-0.26 4.03 1.25 4.28 3.36 0.26 2.11-1.25 4.02-3.36 4.28q-2.14 0.25-4.14 0.25z" class="s11" id="&lt;Path&gt;"/>
				</g>
				<g id="&lt;Group&gt;">
					<path d="m2614.2 1647.69q-1.5-0.01-1.87-0.02c-2.13-0.04-3.82-1.79-3.78-3.91 0.04-2.13 1.82-3.87 3.92-3.78 0.81 0 81.92 1.04 130.67-35.52 27.63-20.72 32.14-56.06 32.53-59.63-2.38-26.74-44.5-66.02-44.93-66.41-1.11-1.03-1.52-2.62-1.03-4.06 0.48-1.43 1.76-2.45 3.27-2.6 0.73-0.07 17.97-1.65 39.81 3.95 20.25 5.2 48.35 17.82 67.2 48.45 1.11 1.81 0.55 4.18-1.26 5.29-1.81 1.11-4.18 0.55-5.3-1.26-26.13-42.46-71.67-48.4-90.82-48.92 12.66 12.89 38.99 42.27 40.76 65.3q0.02 0.31 0 0.62c-0.14 1.68-3.81 41.58-35.61 65.43-47.27 35.45-120.6 37.07-133.56 37.07z" class="s11" id="&lt;Path&gt;"/>
				</g>
				<g id="&lt;Group&gt;">
					<path d="m2616.8 1616.89c-1.68 0-3.22-1.11-3.7-2.8-0.58-2.04 0.6-4.17 2.65-4.75 109.29-31.08 143.54-95.28 143.87-95.93 0.98-1.89 3.3-2.63 5.19-1.65 1.89 0.97 2.63 3.3 1.65 5.18-0.36 0.7-9.1 17.35-31.89 38.06-20.88 18.96-58.07 45.06-116.72 61.74q-0.53 0.15-1.05 0.15z" class="s11" id="&lt;Path&gt;"/>
				</g>
				<g id="&lt;Group&gt;">
					<path d="m2879.03 2599.89c-1.2 0-2.39-0.56-3.14-1.61-1.23-1.73-0.83-4.13 0.9-5.37 15.3-10.93 61.88-44.2 62.18-66.02 0.06-4.56-2.02-8.36-6.36-11.65-16.84-12.75-74.66 25.03-107.14 51.84-1.64 1.35-4.07 1.12-5.42-0.52-1.35-1.64-1.12-4.06 0.52-5.41 0.21-0.18 22.07-18.17 46.79-33.53 34.87-21.67 57.73-27.72 69.9-18.51 6.34 4.79 9.5 10.81 9.4 17.88-0.31 23.05-37.47 52.24-65.4 72.19-0.68 0.48-1.46 0.71-2.23 0.71z" class="s11" id="&lt;Path&gt;"/>
				</g>
				<g id="&lt;Group&gt;">
					<path d="m2918.86 2570.47q-0.39 0-0.69-0.04c-2.11-0.3-3.58-2.24-3.28-4.35 0.28-2.01 2.05-3.41 4.08-3.3 2.07-0.14 12.45-2.93 23.43-5.88 55.45-14.87 116.09-29.89 133.85-19.74 1.84 1.06 2.48 3.41 1.43 5.25-1.06 1.85-3.41 2.49-5.25 1.43-16.49-9.42-91.83 10.79-128.03 20.5-17.79 4.77-23.12 6.13-25.54 6.13zm0.19-7.69q0.09 0.01 0.19 0.03-0.08-0.02-0.19-0.03z" class="s11" id="&lt;Compound Path&gt;"/>
				</g>
				<g id="&lt;Group&gt;">
					<path d="m2943.37 2543.82c-1.63 0-3.14-1.05-3.67-2.68-0.65-2.02 0.47-4.19 2.5-4.84 27.29-8.73 97.39-26.28 98.1-26.46 2.05-0.51 4.15 0.74 4.66 2.8 0.52 2.07-0.74 4.16-2.8 4.67-0.7 0.18-70.56 17.67-97.62 26.32q-0.59 0.19-1.17 0.19z" class="s11" id="&lt;Path&gt;"/>
				</g>
				<g id="&lt;Group&gt;">
					<path d="m2922.48 2513.03c-2.13 0-3.85-1.73-3.85-3.85 0-34.42-58.72-342.53-59.31-345.64-0.4-2.09 0.97-4.1 3.06-4.5 2.09-0.41 4.1 0.97 4.5 3.06 2.43 12.72 59.44 311.93 59.44 347.08 0 2.12-1.72 3.85-3.84 3.85z" class="s11" id="&lt;Path&gt;"/>
				</g>
				<g id="&lt;Group&gt;">
					<path d="m2523.34 1832.4q-0.62 0-1.24-0.2c-2.01-0.68-3.09-2.87-2.41-4.88 0.26-0.76 25.74-76.45 29.5-114.6 0.21-2.11 2.08-3.64 4.21-3.45 2.12 0.21 3.66 2.09 3.45 4.21-3.84 39.02-28.81 113.17-29.87 116.3-0.54 1.61-2.04 2.62-3.64 2.62z" class="s11" id="&lt;Path&gt;"/>
				</g>
				<g id="&lt;Group&gt;">
					<path d="m2428.77 1859.89q-0.89 0-1.74-0.42c-1.89-0.96-2.65-3.28-1.69-5.17 0.35-0.69 35.36-69.9 60.26-143.53 0.68-2.02 2.87-3.1 4.88-2.42 2.02 0.68 3.1 2.87 2.42 4.88-25.09 74.18-60.34 143.86-60.7 144.55-0.67 1.34-2.03 2.11-3.43 2.11z" class="s11" id="&lt;Path&gt;"/>
				</g>
				<g id="&lt;Group&gt;">
					<path d="m2369.4 2491.04c-1.41 0-2.77-0.78-3.44-2.13-0.96-1.9-0.18-4.21 1.72-5.16l46.42-23.22 18.53-249.62c0.16-2.12 2.01-3.72 4.13-3.55 2.12 0.16 3.71 2 3.55 4.12l-18.69 251.8c-0.1 1.35-0.91 2.55-2.12 3.16l-48.38 24.19q-0.84 0.41-1.72 0.41z" class="s11" id="&lt;Path&gt;"/>
				</g>
				<g id="&lt;Group&gt;">
					<path d="m2644.39 2706.19c-52.94 0-105.3-5.49-148.42-11.91-90.61-13.49-161.03-33.86-161.73-34.06-2.05-0.6-3.22-2.73-2.62-4.78 0.59-2.04 2.73-3.21 4.77-2.61 0.69 0.2 70.7 20.44 160.81 33.85 82.05 12.21 197.83 21.07 285.94-5.44l-13.78-164.28-352.12-50.15c-2.11-0.3-3.57-2.25-3.27-4.35 0.3-2.11 2.25-3.57 4.35-3.27l355.16 50.58c1.78 0.25 3.14 1.7 3.29 3.49l14.3 170.43c0.15 1.8-0.97 3.46-2.69 3.99-43.63 13.62-94.06 18.51-143.99 18.51z" class="s11" id="&lt;Path&gt;"/>
				</g>
				<g id="&lt;Group&gt;">
					<path d="m2951.06 2712.05c-1.96 0-3.64-1.5-3.83-3.49l-8.24-88.77c-0.2-2.12 1.36-3.99 3.47-4.19 2.12-0.18 3.99 1.36 4.19 3.48l8.25 88.76c0.19 2.12-1.36 4-3.48 4.19q-0.18 0.02-0.36 0.02z" class="s11" id="&lt;Path&gt;"/>
				</g>
			</g>
			<g id="&lt;Group&gt;">
				<g id="&lt;Group&gt;">
					<path d="m2030.36 2279.55c-29.92 0-58.31-18.3-59.81-19.29-1.78-1.16-2.27-3.54-1.11-5.32 1.16-1.78 3.55-2.28 5.33-1.12 0.43 0.29 43.68 28.12 76.53 13.99 18.06-7.77 29.99-26.96 35.45-57.03 0.38-2.09 2.37-3.48 4.47-3.1 2.09 0.38 3.48 2.38 3.1 4.48-5.95 32.78-19.41 53.89-40 62.73-7.77 3.34-15.92 4.66-23.96 4.66z" class="s10" id="&lt;Path&gt;"/>
				</g>
				<g id="&lt;Group&gt;">
					<path d="m1726.27 2311.33q-0.44 0-0.89-0.11c-41.06-9.73-67.06-26.63-77.3-50.22-12.16-28.04 2.74-54.67 3.39-55.79 1.05-1.84 3.4-2.48 5.25-1.43 1.84 1.06 2.48 3.41 1.43 5.25-0.22 0.38-13.6 24.59-2.98 48.98 9.25 21.21 33.47 36.6 71.99 45.72 2.06 0.49 3.34 2.57 2.85 4.64-0.42 1.77-2 2.96-3.74 2.96z" class="s10" id="&lt;Path&gt;"/>
				</g>
				<path d="m1838.43 1979.13c0 0-95.27-129.97-173.23-25.56-36.79 49.27-4.04 86.02-4.04 86.02 0 0-90.06-10.25-99.22 77.92-8.97 86.41 88.88 90.91 88.88 90.91 0 0-2.2 109.1 107.51 80.45 87.5-22.86 68.9-261.53 68.9-261.53z" class="s10" id="&lt;Path&gt;"/>
				<g id="&lt;Group&gt;">
					<path d="m2328.16 2833.19l-11.58 248.47 153.33 1.55 21.41-235.16z" class="s2" id="&lt;Path&gt;"/>
				</g>
				<path d="m1957.28 1922.73c0 0 107.64-53.87 153.6 34.99 28.16 54.46-4.23 78.01-4.23 78.01 0 0 63.42 11.59 56.87 83.57-8.28 90.88-72.9 92.47-72.9 92.47 0 0-19.91 90.09-95.16 31.34-71.29-55.65-42.67-271.09-42.67-271.09z" class="s10" id="&lt;Path&gt;"/>
				<g id="&lt;Group&gt;">
					<path d="m1763.85 2311.24c0 0-133.74-32.94-174.39 158.78-41.98 198.04-66.4 370.07-77.17 488.33l528.89-81.37c0 0-42.17-430.39-166.89-515.72-66.34-45.39-110.44-50.02-110.44-50.02z" class="s6" id="&lt;Path&gt;"/>
				</g>
				<g id="&lt;Group&gt;">
					<path d="m2274.49 2974.05c0 0-320.82-54.8-394.78-56.39-73.96-1.58-147.8 172.57 52.72 187.44 181.94 13.49 345.52-11.5 345.52-11.5z" class="s8" id="&lt;Path&gt;"/>
				</g>
				<g id="&lt;Group&gt;">
					<path d="m1836.75 3076.61c0 0-115.04-105.58-201.26-340.62l238.36-32.26 103.59 234.43z" class="s8" id="&lt;Path&gt;"/>
				</g>
				<g id="&lt;Group&gt;">
					<path d="m1635.49 2735.99l236.11-32.31c0 0 15.13-231.78-50.62-297.56-65.76-65.77-296.47-26.99-185.49 329.87z" class="s6" id="&lt;Path&gt;"/>
				</g>
				<g id="&lt;Group&gt;">
					<path d="m1885.85 2282.81l-17.24 116.57c-95.24 49.81-163.35-49.1-163.35-49.1l59.16-201.08c0 0 132.73 108.91 121.43 133.61z" class="s8" id="&lt;Path&gt;"/>
				</g>
				<path d="m1886.96 2275.18c0 0-90.54-79.32-106.49-91.05-15.96-11.73 98.12 147.8 98.12 147.8z" class="s10" id="&lt;Path&gt;"/>
				<g id="&lt;Group&gt;">
					<path d="m1801.66 2116.16c-1.93 21.16-20.65 36.76-41.82 34.83-21.17-1.93-36.76-20.65-34.84-41.81 1.93-21.17 20.65-36.77 41.82-34.84 21.17 1.93 36.76 20.65 34.84 41.82z" class="s8" id="&lt;Path&gt;"/>
				</g>
				<g id="&lt;Group&gt;">
					<path d="m1760.74 2141.14c-14.24 22.99 111.48 150.89 173.09 148.25 74.27-3.17 107.79-207.27 71.72-266.18-36.08-58.91-169.67-80.83-216.04 51.6z" class="s8" id="&lt;Path&gt;"/>
				</g>
				<path d="m1787.92 2085.09c0 0 49.28 4.49 54.06-48.07 0 0 34.75 6.48 54.86-20.4 0 0 68.7 26.14 95.08-29.43 0 0-23.09-70.01-137.68-11.99-114.59 58.02-66.32 109.89-66.32 109.89z" class="s10" id="&lt;Path&gt;"/>
				<g id="&lt;Group&gt;">
					<path d="m2459.48 3005.9l-119.39-3.42c-10.49-0.3-18.75-9.05-18.45-19.54l0.21-7.32c0.31-10.49 9.05-18.75 19.54-18.45l119.39 3.43c10.49 0.3 18.75 9.05 18.45 19.54l-0.21 7.32c-0.31 10.49-9.05 18.74-19.54 18.44z" class="s8" id="&lt;Path&gt;"/>
				</g>
				<g id="&lt;Group&gt;">
					<path d="m2480.75 3035.39l-119.39-3.43c-10.49-0.3-18.75-9.05-18.45-19.54l0.21-7.32c0.3-10.48 9.05-18.74 19.54-18.44l119.39 3.42c10.48 0.3 18.74 9.05 18.44 19.54l-0.21 7.32c-0.3 10.49-9.04 18.75-19.53 18.45z" class="s8" id="&lt;Path&gt;"/>
				</g>
				<g id="&lt;Group&gt;">
					<path d="m2477.61 3069.83l-119.39-3.42c-10.49-0.3-18.74-9.05-18.44-19.54l0.21-7.32c0.3-10.49 9.04-18.75 19.53-18.45l119.39 3.43c10.49 0.3 18.75 9.05 18.45 19.53l-0.21 7.32c-0.3 10.49-9.05 18.75-19.54 18.45z" class="s8" id="&lt;Path&gt;"/>
				</g>
				<g id="&lt;Group&gt;">
					<path d="m2471.77 3084.02l-132.64 6.78c-10.48 0.53-19.41-7.53-19.94-18.01l-0.38-7.31c-0.53-10.48 7.53-19.41 18.01-19.95l132.64-6.78c10.48-0.53 19.41 7.53 19.94 18.01l0.38 7.31c0.53 10.48-7.53 19.41-18.01 19.95z" class="s8" id="&lt;Path&gt;"/>
				</g>
				<g id="&lt;Group&gt;">
					<path d="m2360.18 3087.84l-94.28 7.43-5.13-123.55 82.61-14.59z" class="s8" id="&lt;Path&gt;"/>
				</g>
				<g id="&lt;Group&gt;">
					<path d="m2274.21 2975.81c0 0 28.63-65 42.3-75.23 35.54-26.57 38.12 29.97 18.54 64.49z" class="s8" id="&lt;Path&gt;"/>
				</g>
				<path d="m1635.91 2735.93l235.94-32.62-227.93 55.01z" class="s10" id="&lt;Path&gt;"/>
				<path d="m2324.69 2798.65c0 0-10.36 41.01-3.89 42.7 6.47 1.7 178.88 24.02 178.88 24.02l3.79-41.61z" class="s10" id="&lt;Path&gt;"/>
				<path d="m2340.07 2800.81l1.94-22.67 152.31 24.91-2.4 26.28z" class="s10" id="&lt;Path&gt;"/>
				<path d="m1923.39 2133.07c-1.43 8.11-7.23 13.86-12.97 12.85-5.74-1.01-9.23-8.39-7.81-16.5 1.43-8.1 7.23-13.86 12.97-12.85 5.74 1.01 9.23 8.4 7.81 16.5z" class="s11" id="&lt;Path&gt;"/>
				<g id="&lt;Group&gt;">
					<path d="m1925.74 2127.87c-0.83 0-1.66-0.27-2.36-0.81-16-12.44-28.82-3.07-28.94-2.97-1.71 1.28-4.12 0.93-5.39-0.76-1.28-1.7-0.94-4.11 0.75-5.39 6.05-4.55 21.83-9.77 38.3 3.04 1.68 1.3 1.99 3.72 0.68 5.4-0.76 0.98-1.89 1.49-3.04 1.49z" class="s11" id="&lt;Path&gt;"/>
				</g>
				<path d="m2014.98 2145.07c-1.42 8.11-7.23 13.86-12.96 12.85-5.74-1.01-9.24-8.4-7.81-16.5 1.42-8.11 7.23-13.86 12.97-12.85 5.73 1.01 9.23 8.4 7.8 16.5z" class="s11" id="&lt;Path&gt;"/>
				<g id="&lt;Group&gt;">
					<path d="m2017.33 2139.86c-0.82 0-1.65-0.26-2.36-0.81-16-12.43-28.82-3.06-28.94-2.97-1.7 1.28-4.11 0.94-5.39-0.76-1.28-1.69-0.94-4.11 0.76-5.38 6.04-4.55 21.82-9.77 38.3 3.04 1.68 1.3 1.98 3.72 0.67 5.4-0.75 0.97-1.89 1.48-3.04 1.48z" class="s11" id="&lt;Path&gt;"/>
				</g>
				<g id="&lt;Group&gt;">
					<path d="m1961.27 2196.65c-1.2 0-2.37-0.55-3.13-1.6-1.24-1.72-0.85-4.12 0.87-5.37l14.18-10.26c-5.96-10.56-9.38-28.13-9.54-28.95-0.39-2.09 0.97-4.11 3.06-4.51 2.08-0.4 4.1 0.97 4.5 3.06 1.11 5.77 5.12 22.25 10.26 29.06 0.62 0.83 0.89 1.87 0.73 2.89-0.15 1.03-0.71 1.94-1.55 2.55l-17.13 12.4c-0.68 0.49-1.47 0.73-2.25 0.73z" class="s11" id="&lt;Path&gt;"/>
				</g>
				<path d="m1879.52 2088.16c0 0 39.75 14.4 56.07 6.4 10.68-5.23-10.63-30.58-56.07-6.4z" class="s11" id="&lt;Path&gt;"/>
				<path d="m2023.34 2115.69c0 0-12.91 0.3-32.29 3.7-19.37 3.39-10.93-41.81 32.29-3.7z" class="s11" id="&lt;Path&gt;"/>
				<g id="&lt;Group&gt;">
					<path d="m1956.58 2238.21c-22.75 0-37.73-16.71-38.47-17.56-1.4-1.6-1.25-4.03 0.35-5.43 1.6-1.4 4.02-1.24 5.43 0.35 0.75 0.85 18.8 20.82 44.39 13.2 2.04-0.6 4.18 0.55 4.79 2.58 0.6 2.04-0.56 4.19-2.59 4.79-4.89 1.46-9.54 2.07-13.9 2.07z" class="s11" id="&lt;Path&gt;"/>
				</g>
				<g id="&lt;Group&gt;">
					<path d="m1745.41 2125.37c-1.51 0-2.93-0.89-3.55-2.36-0.82-1.96 0.1-4.22 2.06-5.04l15.85-6.62-5.71-12.52c-0.89-1.93-0.03-4.21 1.9-5.1 1.94-0.88 4.22-0.03 5.1 1.91l7.36 16.12c0.44 0.95 0.47 2.04 0.09 3.01-0.38 0.97-1.14 1.74-2.1 2.14l-19.52 8.16q-0.73 0.31-1.48 0.3z" class="s11" id="&lt;Path&gt;"/>
				</g>
				<g id="&lt;Group&gt;">
					<path d="m2486.35 3038.95q-0.07 0-0.15-0.01l-77.48-2.99c-2.12-0.08-3.78-1.87-3.7-3.99 0.09-2.13 1.85-3.77 4-3.7l77.48 2.99c2.12 0.08 3.78 1.87 3.7 4-0.08 2.07-1.79 3.7-3.85 3.7z" class="s11" id="&lt;Path&gt;"/>
				</g>
				<g id="&lt;Group&gt;">
					<path d="m2472.79 3000.92q-0.12 0-0.24-0.01l-67.63-4.1c-2.12-0.12-3.73-1.95-3.6-4.07 0.13-2.12 1.94-3.75 4.07-3.61l67.63 4.1c2.12 0.13 3.74 1.95 3.61 4.07-0.13 2.05-1.82 3.62-3.84 3.62z" class="s11" id="&lt;Path&gt;"/>
				</g>
				<g id="&lt;Group&gt;">
					<path d="m2483.22 3073.39q-0.44 0-0.89-0.1c-5.73-1.36-48.97-2.77-76.64-3.39-2.12-0.05-3.81-1.81-3.76-3.94 0.05-2.09 1.76-3.76 3.85-3.76q0.04 0 0.08 0c7.13 0.16 69.88 1.62 78.24 3.6 2.07 0.49 3.35 2.56 2.86 4.63-0.42 1.77-2 2.96-3.74 2.96z" class="s11" id="&lt;Path&gt;"/>
				</g>
				<g id="&lt;Group&gt;">
					<path d="m1922.19 2948.57c-1.47 0-2.87-0.84-3.51-2.27-0.88-1.93-0.01-4.21 1.93-5.08l44.89-20.21c1.94-0.87 4.22-0.01 5.09 1.93 0.88 1.94 0.01 4.22-1.93 5.09l-44.9 20.2q-0.77 0.35-1.57 0.34z" class="s11" id="&lt;Path&gt;"/>
				</g>
				<g id="&lt;Group&gt;">
					<path d="m1635.41 2739.18c-1.86 0-3.5-1.35-3.8-3.25-0.07-0.47-7.41-47.45-7.84-105.9-0.59-78.75 10.92-139.75 34.21-181.29 1.04-1.86 3.39-2.51 5.24-1.47 1.86 1.03 2.52 3.38 1.48 5.23-54.09 96.47-25.78 280.38-25.49 282.23 0.34 2.1-1.1 4.07-3.2 4.4q-0.3 0.05-0.6 0.05z" class="s11" id="&lt;Path&gt;"/>
				</g>
				<g id="&lt;Group&gt;">
					<path d="m1873.44 2707.86c-1.95 0-3.61-1.47-3.83-3.44l-8.35-78.05c-0.22-2.12 1.31-4.01 3.42-4.24 2.11-0.23 4.01 1.31 4.24 3.42l8.35 78.05c0.22 2.11-1.31 4.01-3.42 4.23q-0.21 0.03-0.41 0.03z" class="s11" id="&lt;Path&gt;"/>
				</g>
				<g id="&lt;Group&gt;">
					<path d="m1705.46 2348.09c0 0 81.21 102.35 163.64 118.69 82.42 16.34 5.14-105.49 5.14-105.49z" class="s8" id="&lt;Path&gt;"/>
				</g>
				<path d="m1742.03 1946.46c0 0 5.31-82.57 65.04-71.61 0 0 32.86-45.59 95.37-41 62.52 4.59 99.97 36.62 101.1 81.48 1.12 44.86-112.38 102.98-184.85 98.59-72.47-4.39-76.66-67.46-76.66-67.46z" class="s10" id="&lt;Path&gt;"/>
				<g id="&lt;Group&gt;">
					<path d="m1854.33 2049.34c-9.57 0-16.27-1.62-16.66-1.72-2.06-0.51-3.32-2.6-2.81-4.66 0.52-2.06 2.61-3.32 4.66-2.81 1.96 0.48 48.23 11.29 68.17-31.04 0.91-1.92 3.21-2.75 5.13-1.84 1.92 0.9 2.74 3.2 1.84 5.12-11.86 25.17-32.23 33.41-47.24 35.9-4.69 0.78-9.14 1.05-13.09 1.05z" class="s10" id="&lt;Path&gt;"/>
				</g>
				<g id="&lt;Group&gt;">
					<path d="m1944.76 2034.28c-21.11 0-39.48-10.97-40.44-11.55-1.81-1.11-2.39-3.47-1.29-5.29 1.1-1.82 3.47-2.39 5.29-1.29 0.26 0.16 26.75 15.93 50.39 8.35 12.37-3.96 21.98-13.71 28.57-29 0.84-1.95 3.11-2.85 5.06-2.01 1.95 0.84 2.85 3.11 2.01 5.06-7.52 17.43-18.73 28.64-33.34 33.3-5.43 1.73-10.93 2.43-16.25 2.43z" class="s10" id="&lt;Path&gt;"/>
				</g>
				<g id="&lt;Group&gt;">
					<path d="m1747.3 1923.27c-1.97 0-3.65-1.5-3.83-3.5-0.09-1.02-2-25.11 15.77-42.55 14.17-13.92 36.47-19.36 66.26-16.15 2.11 0.23 3.64 2.12 3.41 4.24-0.22 2.11-2.12 3.63-4.23 3.41-27.34-2.94-47.53 1.75-59.99 13.93-15.18 14.84-13.57 36.23-13.55 36.44 0.18 2.12-1.39 3.98-3.5 4.17q-0.17 0.01-0.34 0.01z" class="s10" id="&lt;Path&gt;"/>
				</g>
				<g id="&lt;Group&gt;">
					<path d="m1877.35 2474.87c-47.73 0-117.1-64.76-120.55-68.01-1.55-1.46-1.62-3.89-0.16-5.44 1.46-1.55 3.89-1.62 5.44-0.16 0.24 0.23 24.55 23.03 53.52 41.66 25.93 16.69 60.98 33.45 80.63 18.51 5.7-4.33 8.85-10.04 9.62-17.44 3.27-31.58-37.93-79.53-38.35-80.01-1.39-1.61-1.22-4.04 0.39-5.43 1.6-1.4 4.04-1.22 5.42 0.39 1.8 2.06 43.81 50.99 40.19 85.84-0.98 9.51-5.23 17.17-12.61 22.78-6.76 5.13-14.79 7.31-23.54 7.31z" class="s11" id="&lt;Path&gt;"/>
				</g>
				<g id="&lt;Group&gt;">
					<path d="m2478.67 2972.75q-0.12 0-0.24-0.01c-2.12-0.13-3.74-1.95-3.61-4.07l6.29-105.42c0.13-2.12 1.99-3.72 4.07-3.61 2.12 0.12 3.74 1.95 3.61 4.07l-6.29 105.42c-0.12 2.04-1.81 3.62-3.83 3.62z" class="s10" id="&lt;Path&gt;"/>
				</g>
			</g>
			<g id="&lt;Group&gt;">
				<g id="&lt;Group&gt;">
					<path d="m3268.6 2392.21c0 0-53.55 267.01-59.22 296.78 0 0 198.64-23.81 198.64-29.77 0-5.95-11.35-178.61-11.35-178.61z" class="s8" id="&lt;Path&gt;"/>
				</g>
				<g id="&lt;Group&gt;">
					<path d="m4072.08 2825.93c0 0 12.92-229.51-50.3-451.15l-210.78 165.36 73.78 208.39z" class="s8" id="&lt;Path&gt;"/>
				</g>
				<path d="m3658.63 2068.81c5.5-4.4 34.09 0 35.19 28.58 1.1 28.59-35.19 38.49-35.19 38.49z" class="s10" id="&lt;Path&gt;"/>
				<g id="&lt;Group&gt;">
					<path d="m3650.8 1944.21l43.02 234.55c0 0-83.71 221.33-131.34 209.42-47.63-11.9-43.49-308.38-43.49-308.38l124.48-150.07z" class="s8" id="&lt;Path&gt;"/>
				</g>
				<g id="&lt;Group&gt;">
					<path d="m3549.92 2206.72l17.02 172.67 28.38-154.8c0 0 106.12-87.69 129.68-82.55 23.56 5.14 159.78 570.77 159.78 570.77l-251.44 191.66-236.67-102.35c0 0-22.7-488.23-11.35-547.76 11.35-59.54 38.11-100.69 112.7-103.93z" class="s2" id="&lt;Path&gt;"/>
				</g>
				<path d="m3652.03 1972.04c2.6 4.18 28.59-18.69 19.8-37.38-8.8-18.69-45.09-3.3-19.8 37.38z" class="s10" id="&lt;Path&gt;"/>
				<path d="m3402.43 1770.83c0 0-36.28 12.09-29.68 58.27 6.59 46.18 27.91 101.63 27.91 101.63l16.74-118.18z" class="s10" id="&lt;Path&gt;"/>
				<path d="m3413.43 1814.34c-5.5-3.47-25.29-29.99-7.7-58.91 17.6-28.92 89.32-42.59 131.95-45.08 39.58-2.31 37.39 25.32 37.39 25.32 0 0 62.58-23.37 85.76 37.02 23.09 60.16-2.2 161.97-2.2 161.97 0 0-41.78-109.91-103.36-131.89-61.57-21.98-141.84 11.57-141.84 11.57z" class="s10" id="&lt;Path&gt;"/>
				<g id="&lt;Group&gt;">
					<path d="m3594.86 2865.99c11.35-5.96 236.4-127.55 306.95-159.13 73.33-32.84 181.62 29.77 170.27 119.07-11.35 89.31-476.12 190.7-476.12 190.7z" class="s8" id="&lt;Path&gt;"/>
				</g>
				<g id="&lt;Group&gt;">
					<path d="m3725.86 2141.23c0 0 119.19 5.95 204.33 71.45 85.13 65.49 107.83 148.85 107.83 148.85l-204.32 166.71c0 0-89.45-147.29-87.29-159.98 2.15-12.69-20.55-227.03-20.55-227.03z" class="s2" id="&lt;Path&gt;"/>
				</g>
				<g id="&lt;Group&gt;">
					<path d="m3456.21 2157.6c-8.46 1.49-99.27 7.45-144.67 78.89-45.41 71.45-56.76 142.9-56.76 142.9l147.57 136.94z" class="s2" id="&lt;Path&gt;"/>
				</g>
				<g id="&lt;Group&gt;">
					<path d="m3615.43 1910.66c2.73 21.08 22.04 35.95 43.11 33.21 21.08-2.73 35.95-22.04 33.21-43.11-2.73-21.08-22.04-35.95-43.11-33.21-21.08 2.73-35.95 22.04-33.21 43.11z" class="s8" id="&lt;Path&gt;"/>
				</g>
				<path d="m3613.55 2003.93c-13.64 10.86-77.38 61.38-92.45 73.33l-2.11 2.54c0 0 0.88 52.62 1.1 75.87 15.59-17.94 107.66-163.05 93.46-151.74z" class="s10" id="&lt;Path&gt;"/>
				<g id="&lt;Group&gt;">
					<path d="m3657.27 1934.06c15.11 22.43-105.63 155.05-167.29 154.77-74.33-0.33-115.64-203-81.85-263.24 33.79-60.25 166.44-87.27 217.85 43.3z" class="s8" id="&lt;Path&gt;"/>
				</g>
				<path d="m3413.43 1820.31c0 0 90.17 44.81 147.34 25.29 0 0 26.42-1.78 35.19 14.29 6.59 12.09 12.09 26.39 13.19 47.28 1.1 20.89 21.99-18.69 23.09-45.08 1.1-26.39-61.57-98.96-127.55-92.36-65.97 6.59-117.65 37.38-91.26 50.58z" class="s10" id="&lt;Path&gt;"/>
				<path d="m3268.6 2392.21l121.74 115.32-29.49-21.57-96.84-70.85z" class="s10" id="&lt;Path&gt;"/>
				<g id="&lt;Group&gt;">
					<path d="m3520.09 2113.89c0 0-9.9 57.11 29.83 92.83 0 0-17.03 65.5-28.38 77.41-11.35 11.9-39.73-77.41-28.38-119.08 11.35-41.68 26.93-51.16 26.93-51.16z" class="s2" id="&lt;Path&gt;"/>
				</g>
				<g id="&lt;Group&gt;">
					<path d="m3595.32 2224.59c0 0 18.59 116.32 23.48 114.72 4.9-1.6 101.39-150.45 107.06-168.31 5.68-17.86-0.15-90.1-51.83-102.19 0 0 41.78 67.07-78.71 155.78z" class="s2" id="&lt;Path&gt;"/>
				</g>
				<path d="m3487.83 1932.23c1.73 8.04 7.76 13.57 13.45 12.34 5.7-1.23 8.91-8.74 7.17-16.79-1.73-8.04-7.75-13.57-13.45-12.34-5.69 1.23-8.9 8.74-7.17 16.79z" class="s11" id="&lt;Path&gt;"/>
				<g id="&lt;Group&gt;">
					<path d="m3482.94 1926.02c-1.1 0-2.19-0.47-2.95-1.37-1.37-1.63-1.16-4.06 0.47-5.43 15.98-13.42 31.94-8.81 38.15-4.5 1.75 1.21 2.18 3.61 0.97 5.36-1.21 1.73-3.59 2.17-5.34 0.97-0.57-0.38-13.5-8.82-28.83 4.07-0.72 0.6-1.6 0.9-2.47 0.9z" class="s11" id="&lt;Path&gt;"/>
				</g>
				<path d="m3401.16 1948.82c1.73 8.04 7.75 13.57 13.44 12.35 5.7-1.23 8.91-8.74 7.18-16.79-1.73-8.04-7.75-13.57-13.45-12.35-5.69 1.23-8.91 8.74-7.17 16.79z" class="s11" id="&lt;Path&gt;"/>
				<g id="&lt;Group&gt;">
					<path d="m3396.26 1942.6c-1.09 0-2.18-0.46-2.95-1.37-1.36-1.63-1.15-4.05 0.48-5.42 15.98-13.42 31.94-8.81 38.15-4.49 1.75 1.21 2.18 3.61 0.97 5.36-1.21 1.74-3.6 2.17-5.34 0.97-0.57-0.38-13.5-8.82-28.83 4.05-0.72 0.61-1.6 0.9-2.48 0.9z" class="s11" id="&lt;Path&gt;"/>
				</g>
				<g id="&lt;Group&gt;">
					<path d="m3458.87 1990.61c-0.74 0-1.48-0.21-2.13-0.65l-17.6-11.73c-0.86-0.57-1.46-1.47-1.65-2.48-0.19-1.02 0.03-2.07 0.62-2.92 4.89-7.02 8.25-23.63 9.14-29.44 0.32-2.1 2.29-3.54 4.38-3.22 2.1 0.32 3.55 2.28 3.23 4.38-0.13 0.83-2.87 18.52-8.42 29.3l14.56 9.71c1.77 1.18 2.25 3.57 1.07 5.34-0.74 1.11-1.96 1.71-3.2 1.71z" class="s11" id="&lt;Path&gt;"/>
				</g>
				<g id="&lt;Group&gt;">
					<path d="m3446.91 2042.14c-2.12 0-4.07-0.22-5.82-0.69-2.05-0.56-3.26-2.67-2.7-4.72 0.56-2.05 2.68-3.26 4.72-2.71 11.46 3.12 40.6-10.34 50.86-15.79 1.88-0.99 4.21-0.28 5.2 1.6 1 1.88 0.29 4.21-1.59 5.2-3.62 1.93-32.78 17.11-50.67 17.11z" class="s11" id="&lt;Path&gt;"/>
				</g>
				<g id="&lt;Group&gt;">
					<path d="m3671.84 1917.72q-0.68 0.01-1.35-0.24l-19.81-7.41c-0.98-0.36-1.77-1.11-2.18-2.06-0.42-0.96-0.43-2.04-0.03-3.01l6.74-16.39c0.81-1.97 3.06-2.91 5.02-2.1 1.97 0.81 2.9 3.06 2.1 5.02l-5.23 12.72 16.08 6.02c1.99 0.74 3.01 2.96 2.26 4.95-0.58 1.55-2.04 2.5-3.6 2.5z" class="s11" id="&lt;Path&gt;"/>
				</g>
				<path d="m3513.73 1899.16c0 0-19.38-1.94-35.04 9.96-15.66 11.91-12.8-32.27 35.04-9.96z" class="s11" id="&lt;Path&gt;"/>
				<path d="m3389.79 1929.15c0 0 12.87-8.89 32.51-7.77 19.63 1.13-5.29-37.46-32.51 7.77z" class="s11" id="&lt;Path&gt;"/>
				<g id="&lt;Group&gt;">
					<path d="m3564.62 2388.78c-1.99 0-3.68-1.53-3.84-3.55l-12.91-162.9-23.62 63.87c-0.61 1.64-2.23 2.68-3.97 2.5-1.74-0.16-3.15-1.47-3.44-3.19l-22.61-134.44c-0.35-2.1 1.06-4.08 3.16-4.44 2.09-0.35 4.08 1.06 4.43 3.16l20.22 120.2 24.68-66.72c0.62-1.7 2.33-2.74 4.13-2.48 1.79 0.25 3.17 1.71 3.31 3.51l14.3 180.33c0.16 2.11-1.42 3.97-3.54 4.14q-0.15 0.01-0.3 0.01z" class="s11" id="&lt;Path&gt;"/>
				</g>
				<g id="&lt;Group&gt;">
					<path d="m3624 2301.91q-0.2 0-0.4-0.02c-1.44-0.15-2.67-1.09-3.19-2.43l-28.59-73.67c-0.77-1.99 0.21-4.22 2.19-4.98 1.99-0.78 4.22 0.21 4.98 2.19l25.87 66.66 97.77-150.53c1.16-1.78 3.55-2.28 5.33-1.13 1.78 1.16 2.29 3.54 1.13 5.33l-101.87 156.83c-0.71 1.1-1.93 1.75-3.22 1.75z" class="s11" id="&lt;Path&gt;"/>
				</g>
				<g id="&lt;Group&gt;">
					<path d="m3834.01 2531.72q-0.45 0-0.89-0.1c-1.15-0.28-2.1-1.06-2.6-2.13l-62.67-135.25c-0.9-1.92-0.06-4.21 1.87-5.11 1.93-0.89 4.22-0.05 5.11 1.88l60.62 130.82 200.69-158.61c1.67-1.32 4.09-1.04 5.41 0.63 1.32 1.67 1.03 4.09-0.63 5.41l-204.52 161.63c-0.69 0.54-1.53 0.83-2.39 0.83z" class="s11" id="&lt;Path&gt;"/>
				</g>
				<g id="&lt;Group&gt;">
					<path d="m3390.89 2807.71c-2.1 0-3.81-1.68-3.85-3.78-0.27-15.36-6.52-377.02 1.13-441.44 0.25-2.12 2.17-3.62 4.27-3.37 2.11 0.25 3.62 2.16 3.37 4.27-7.58 63.9-1.14 436.65-1.07 440.4 0.03 2.13-1.66 3.88-3.78 3.92q-0.04 0-0.07 0z" class="s11" id="&lt;Path&gt;"/>
				</g>
				<g id="&lt;Group&gt;">
					<path d="m3941.77 2760.43c-0.79 0-1.59-0.24-2.27-0.74l-57.18-41.78c-1.72-1.26-2.09-3.67-0.84-5.38 1.26-1.72 3.67-2.09 5.38-0.84l57.18 41.78c1.72 1.26 2.09 3.66 0.84 5.38-0.76 1.03-1.93 1.58-3.11 1.58z" class="s11" id="&lt;Path&gt;"/>
				</g>
			</g>
			<g id="&lt;Group&gt;">
				<g id="&lt;Group&gt;">
					<path d="m1387.26 2188.95c0 0-19.01-14.59-34.41 9.6-15.39 24.19-29.68 47.29-29.68 47.29 0 0 30.78 19.79 31.88 21.99 1.1 2.2 32.21-78.88 32.21-78.88z" class="s8" id="&lt;Path&gt;"/>
				</g>
				<g id="&lt;Group&gt;">
					<path d="m1428.72 2294.22c0 0-7.69 17.59-46.18 39.58-18.77 10.73-69.6 24.19-81.88 28.71-42.92 15.82-116.6-29.09-116.04-33.11 5.5-39.58 40.43-58.36 57.18-65.97 12.09-5.5 43.87-42.66 67.07-51.68 19.79-7.7 16.5 30.79 16.5 30.79z" class="s8" id="&lt;Path&gt;"/>
				</g>
				<g id="&lt;Group&gt;">
					<path d="m837.07 1800.51c0 0 77.4 17.86 71.45 130.98-5.96 113.13 11.9 148.85 53.58 190.53 41.68 41.68 54.47 159.31-8.49 180.87-62.96 21.56-164.17 27.52-199.9-115.38-35.72-142.89 83.36-387 83.36-387z" class="s2" id="&lt;Path&gt;"/>
				</g>
				<g id="&lt;Group&gt;">
					<path d="m673.18 2013.98c0 0 176.39-62.36 193.58-167.75 0 0 1.72-62.47-113.13-83.35-116.25-21.14-226.25 89.31-226.25 208.38 0 64.29-71.45 52.4-71.45 136.95 0 84.54 35.21 101.73-17.63 165.14-33.83 40.6-143.12 192.09 17.63 245.68 0 0 23.3-156.64 113.8-195.87 90.5-39.24 122.2-49.81 122.2-49.81z" class="s2" id="&lt;Path&gt;"/>
				</g>
				<g id="&lt;Group&gt;">
					<path d="m1158.31 2534.4l-66.31-74.05-84.55 221.93c0 0 72.92 156.73 163.28 189.33z" class="s8" id="&lt;Path&gt;"/>
				</g>
				<g id="&lt;Group&gt;">
					<path d="m847.17 2233.13c12.33 5.28 96.88-15.85 149.72 195.51 52.84 211.37 93.17 596.78 93.17 596.78l-554.18 83.57c0 0-84.37-777.69 69.98-860.01 158.52-84.55 241.31-15.85 241.31-15.85z" class="s12" id="&lt;Path&gt;"/>
				</g>
				<g id="&lt;Group&gt;">
					<path d="m1185.11 2328.99c0 0-61.4 416.7-61.4 490.68 0 73.97 179.66 105.68 190.22-95.12 9.59-182.18 0.44-376.46 0.44-376.46z" class="s8" id="&lt;Path&gt;"/>
				</g>
				<g id="&lt;Group&gt;">
					<path d="m1148.6 2749.84c0 0-420.82 17.78-493.49 31.65-72.67 13.87-70.14 196.28 129.08 169.03 180.76-24.73 347.01-98.49 347.01-98.49z" class="s8" id="&lt;Path&gt;"/>
				</g>
				<g id="&lt;Group&gt;">
					<path d="m440.86 2686.22c0 0 55.75 197.5 261.98 261.98l17.38-174.16c0 0-76.92-87.82-91.24-162.31z" class="s8" id="&lt;Path&gt;"/>
				</g>
				<g id="&lt;Group&gt;">
					<path d="m637.57 2344.09c-0.94-8.21 31.7-126.81 42.27-126.81 23.71 0-211.37 42.27-253.64 190.22-29.61 103.63-0.22 359.1-0.22 359.1l261.97-77.4z" class="s12" id="&lt;Path&gt;"/>
				</g>
				<g id="&lt;Group&gt;">
					<path d="m908.25 2254.56c15.1 12.29 130.98 77.4 214.34 220.3l-89.31 202.43z" class="s12" id="&lt;Path&gt;"/>
				</g>
				<g id="&lt;Group&gt;">
					<path d="m805.27 2130.38l61.3 177.77c-16.67 15.63-19.41 102.03-35.72 107.17-38.89 12.25-52.47-30.19-83.36-65.49-33.94-38.8-83.35-71.45-83.35-71.45l-15-243.66c0 0 158.41 70.15 156.13 95.66z" class="s8" id="&lt;Path&gt;"/>
				</g>
				<g id="&lt;Group&gt;">
					<path d="m657.93 2169.97c0 0 83.61 90.55 143.15 120.32l-23.82 89.3c0 0-148.85-88-148.85-142.89 0-53.59 29.52-66.73 29.52-66.73z" class="s0" id="&lt;Path&gt;"/>
				</g>
				<g id="&lt;Group&gt;">
					<path d="m829.46 2197.45c0 0 37.11 21.39 49.02 51.16 11.91 29.77-11.91 95.26-23.82 113.12l-23.81-77.4c0 0 11.44-48.23-1.39-86.88z" class="s0" id="&lt;Path&gt;"/>
				</g>
				<g id="&lt;Group&gt;">
					<path d="m801.08 2290.29l29.77 125.03v-136.94l16.32-45.25c0 0 90.85 211.96-4.42 235.77-100.87 25.22-95.26-190.52-95.26-190.52z" class="s0" id="&lt;Path&gt;"/>
				</g>
				<path d="m812.9 2152.5l-124.95-64.81c0 0 59.05 99.87 144.5 121.51z" class="s9" id="&lt;Path&gt;"/>
				<g id="&lt;Group&gt;">
					<path d="m634.58 2016.03c-9.48 25.33 124.67 149.88 184.58 135.29 72.22-17.59 79.42-247.91 32.55-298.66-46.86-50.75-182.16-46.22-201.83 92.72z" class="s8" id="&lt;Path&gt;"/>
				</g>
				<g id="&lt;Group&gt;">
					<path d="m676.51 1996.83c2.23 21.14-13.09 40.09-34.23 42.32-21.14 2.24-40.08-13.09-42.32-34.22-2.23-21.14 13.09-40.09 34.23-42.32 21.14-2.24 40.08 13.09 42.32 34.22z" class="s8" id="&lt;Path&gt;"/>
				</g>
				<path d="m1130.74 2851.69l-80.26-102.26 41.78 117.66z" class="s9" id="&lt;Path&gt;"/>
				<g id="&lt;Group&gt;">
					<path d="m1370.45 2275.52c0-1.16 39.23-75.09 43.98-78.07 8.8-5.49 35.19-2.19 17.52 34.67-17.61 36.76-29.62 57.7-29.62 57.7z" class="s8" id="&lt;Path&gt;"/>
				</g>
				<g id="&lt;Group&gt;">
					<path d="m1392.44 2296.48c0-1.16 31.53-67.47 36.28-70.44 8.8-5.49 31.26-3.84 17.52 34.67-13.12 36.8-34.01 52.2-34.01 52.2z" class="s8" id="&lt;Path&gt;"/>
				</g>
				<g id="&lt;Group&gt;">
					<path d="m1378.14 2267.83c0.98-0.63 36.99-63.69 36.92-69.3-0.12-10.37-17.15-30.8-38.64 3.98-21.42 34.67-32.56 56.08-32.56 56.08z" class="s8" id="&lt;Path&gt;"/>
				</g>
				<g id="&lt;Group&gt;">
					<path d="m835.15 1835.05q0.47-0.77 0.91-1.55c0 0-42.88-52.78-119.85-19.79-66.01 28.29-68.13 112.38-67.4 135.75l-15.07 9.39c0 0 31.29 14.92 72.57 7.7 43.76-7.66 141.94-28.4 128.84-131.5z" class="s2" id="&lt;Path&gt;"/>
				</g>
				<path d="m1043.81 2699.72l72.97-211.7-79.56 180.35z" class="s9" id="&lt;Path&gt;"/>
				<g id="&lt;Group&gt;">
					<path d="m765.14 2383.28q-0.78 0-1.53-0.32c-1.95-0.85-2.85-3.11-2-5.06l36.29-83.57c0.84-1.95 3.11-2.84 5.06-1.99 1.95 0.84 2.84 3.11 1.99 5.06l-36.28 83.56c-0.63 1.45-2.05 2.32-3.53 2.32z" class="s11" id="&lt;Path&gt;"/>
				</g>
				<g id="&lt;Group&gt;">
					<path d="m831.11 2414.07c-2.12 0-3.85-1.73-3.85-3.85v-130.85c0-1.51 0.89-2.89 2.28-3.51 1.38-0.62 3-0.37 4.13 0.63l49.48 43.99c1.59 1.41 1.73 3.84 0.32 5.43-1.41 1.59-3.85 1.73-5.43 0.32l-43.08-38.29v122.28c0 2.12-1.72 3.85-3.85 3.85z" class="s11" id="&lt;Path&gt;"/>
				</g>
				<g id="&lt;Group&gt;">
					<path d="m1148.89 2719.75q-0.11 0-0.22-0.01c-2.12-0.12-3.75-1.94-3.63-4.06l9.9-177.03c0.12-2.12 1.93-3.76 4.06-3.62 2.12 0.11 3.74 1.93 3.62 4.05l-9.89 177.03c-0.12 2.05-1.81 3.64-3.84 3.64z" class="s11" id="&lt;Path&gt;"/>
				</g>
				<g id="&lt;Group&gt;">
					<path d="m426.47 2770.33c-1.63 0-3.15-1.06-3.67-2.7-0.63-2.03 0.5-4.19 2.52-4.83l232.11-72.66-26.93-160.53c-0.36-2.1 1.06-4.08 3.16-4.43 2.09-0.35 4.08 1.06 4.43 3.16l27.49 163.83c0.31 1.89-0.82 3.73-2.65 4.31l-235.31 73.67q-0.57 0.18-1.15 0.18z" class="s11" id="&lt;Path&gt;"/>
				</g>
				<g id="&lt;Group&gt;">
					<path d="m698.07 2839.6q-0.64 0-1.28-0.22c-2-0.7-3.06-2.9-2.36-4.91l22-62.67c0.7-2.01 2.9-3.06 4.9-2.36 2.01 0.71 3.06 2.9 2.36 4.91l-21.99 62.67c-0.56 1.59-2.05 2.58-3.63 2.58z" class="s11" id="&lt;Path&gt;"/>
				</g>
				<g id="&lt;Group&gt;">
					<path d="m624.4 2018.23c-1.63 0-3.14-1.04-3.67-2.68-0.65-2.02 0.47-4.19 2.49-4.84l21.97-7.03-16.02-18.68c-1.38-1.62-1.19-4.05 0.42-5.43 1.61-1.38 4.04-1.2 5.43 0.42l19.79 23.09c0.84 0.98 1.13 2.31 0.78 3.55-0.35 1.24-1.3 2.22-2.53 2.62l-27.49 8.79q-0.59 0.19-1.17 0.19z" class="s11" id="&lt;Path&gt;"/>
				</g>
				<path d="m788.4 1985.55c-0.69 8.2-5.95 14.46-11.75 13.97-5.81-0.48-9.96-7.52-9.28-15.72 0.69-8.2 5.95-14.46 11.75-13.98 5.81 0.49 9.96 7.53 9.28 15.73z" class="s11" id="&lt;Path&gt;"/>
				<g id="&lt;Group&gt;">
					<path d="m757.27 1975.81c-1.06 0-2.11-0.43-2.87-1.28-1.41-1.57-1.29-3.99 0.28-5.41 5.6-5.07 20.84-11.7 38.41-0.44 1.79 1.15 2.32 3.53 1.17 5.32-1.15 1.79-3.53 2.3-5.32 1.16-16.88-10.81-28.62-0.75-29.11-0.32-0.74 0.65-1.65 0.97-2.56 0.97z" class="s11" id="&lt;Path&gt;"/>
				</g>
				<path d="m881.8 1986.99c-0.68 8.2-5.94 14.46-11.75 13.97-5.8-0.48-9.96-7.52-9.27-15.72 0.68-8.2 5.94-14.46 11.75-13.97 5.8 0.48 9.95 7.52 9.27 15.72z" class="s11" id="&lt;Path&gt;"/>
				<g id="&lt;Group&gt;">
					<path d="m852.87 1978.35c-1.06 0-2.11-0.43-2.87-1.28-1.41-1.57-1.29-3.98 0.28-5.4 5.6-5.08 20.85-11.71 38.42-0.45 1.79 1.15 2.31 3.53 1.16 5.32-1.15 1.79-3.53 2.3-5.32 1.16-16.88-10.82-28.62-0.75-29.11-0.31-0.73 0.64-1.65 0.96-2.56 0.96z" class="s11" id="&lt;Path&gt;"/>
				</g>
				<g id="&lt;Group&gt;">
					<path d="m833.73 2038.85c-1.07 0-2.14-0.45-2.9-1.32-1.4-1.61-1.23-4.04 0.37-5.43l13.19-11.51c-6.89-9.97-11.89-27.16-12.12-27.97-0.59-2.04 0.59-4.17 2.63-4.76 2.05-0.59 4.18 0.59 4.77 2.63 1.63 5.65 7.11 21.7 12.85 28.02 0.69 0.76 1.05 1.78 0.99 2.81-0.06 1.03-0.53 2-1.31 2.68l-15.94 13.9c-0.73 0.63-1.63 0.95-2.53 0.95z" class="s11" id="&lt;Path&gt;"/>
				</g>
				<path d="m742.01 1949.65c0 0 34.9 1.31 54.54 2.51 19.72 1.19-12.43-30.66-54.54-2.51z" class="s11" id="&lt;Path&gt;"/>
				<path d="m893.24 1954.45c0 0-13.37 0.36-32.74 3.74-19.38 3.38-10.45-41.88 32.74-3.74z" class="s11" id="&lt;Path&gt;"/>
				<g id="&lt;Group&gt;">
					<path d="m833.85 2098.71c-22.53 0-31.01-20.1-32.35-31.09-0.13-1.09 0.21-2.18 0.94-3.01 0.72-0.82 1.76-1.29 2.86-1.3l54.16-0.35c1.98 0 3.63 1.47 3.85 3.42 0.06 0.55 1.39 13.51-6.57 22.96-4.75 5.64-11.66 8.77-20.53 9.3q-1.21 0.07-2.36 0.07zm-23.78-27.74c2.05 7.27 8.27 21.05 25.68 19.98 6.68-0.4 11.77-2.61 15.1-6.57 3.68-4.36 4.63-10.09 4.83-13.7z" class="s11" id="&lt;Compound Path&gt;"/>
				</g>
				<g id="&lt;Group&gt;">
					<path d="m1343.5 2262.33c-0.7 0-1.41-0.19-2.05-0.6-1.8-1.14-2.33-3.52-1.19-5.31l43.98-69.27c1.14-1.8 3.52-2.33 5.31-1.19 1.8 1.14 2.33 3.52 1.19 5.31l-43.98 69.27c-0.74 1.16-1.98 1.79-3.26 1.79z" class="s11" id="&lt;Path&gt;"/>
				</g>
				<g id="&lt;Group&gt;">
					<path d="m1373.19 2270.03q-0.93 0-1.81-0.46c-1.87-1-2.58-3.33-1.58-5.2 8.77-16.44 40.59-66.32 41.94-68.44 1.14-1.79 3.52-2.31 5.31-1.17 1.79 1.14 2.32 3.52 1.17 5.31-0.33 0.52-33 51.74-41.63 67.92-0.69 1.3-2.02 2.04-3.4 2.04z" class="s11" id="&lt;Path&gt;"/>
				</g>
				<g id="&lt;Group&gt;">
					<path d="m1294.03 2282.12c-1.61 0-3.12-1.02-3.65-2.63-0.68-2.02 0.41-4.2 2.43-4.87 9.62-3.21 23.12-25.16 27.51-33.35 1.01-1.87 3.34-2.58 5.21-1.58 1.88 1.01 2.58 3.34 1.58 5.21-1.76 3.29-17.63 32.28-31.87 37.02q-0.6 0.2-1.21 0.2z" class="s11" id="&lt;Path&gt;"/>
				</g>
				<g id="&lt;Group&gt;">
					<path d="m1294.03 2306.31c-1.41 0-2.77-0.78-3.44-2.13-0.95-1.9-0.18-4.21 1.72-5.16 4.41-2.21 52.11-16.19 72.46-7.81 1.96 0.81 2.9 3.06 2.09 5.02-0.81 1.97-3.06 2.9-5.03 2.09-16.61-6.84-61.33 5.21-66.08 7.59q-0.84 0.41-1.72 0.4z" class="s11" id="&lt;Path&gt;"/>
				</g>
				<g id="&lt;Group&gt;">
					<path d="m1403.98 2278.82c-0.73 0-1.46-0.2-2.11-0.63-1.78-1.17-2.27-3.56-1.1-5.33l31.89-48.38c1.17-1.78 3.55-2.27 5.33-1.1 1.77 1.17 2.26 3.56 1.09 5.33l-31.88 48.38c-0.74 1.12-1.97 1.73-3.22 1.73z" class="s11" id="&lt;Path&gt;"/>
				</g>
				<g id="&lt;Group&gt;">
					<path d="m679.85 1971.01c-14.77 0-24.49-1.12-25.12-1.19-2.11-0.25-3.62-2.16-3.37-4.27 0.25-2.11 2.17-3.61 4.27-3.38 0.95 0.11 94.98 10.52 145-36.02 22.23-20.67 32.67-49.75 31.04-86.43-0.1-2.12 1.55-3.92 3.67-4.02 2.1-0.11 3.92 1.55 4.02 3.68 1.73 39.05-9.54 70.14-33.5 92.43-27.62 25.68-67.31 34.63-95.73 37.63-11.28 1.19-21.64 1.57-30.28 1.57z" class="s11" id="&lt;Path&gt;"/>
				</g>
				<g id="&lt;Group&gt;">
					<path d="m826.72 1826.9c-1.49 0-2.9-0.86-3.53-2.3-0.3-0.68-23.08-50.98-76.24-59.32-2.1-0.33-3.53-2.3-3.21-4.4 0.34-2.1 2.3-3.52 4.4-3.2 57.5 9.02 81.12 61.6 82.1 63.83 0.85 1.95-0.04 4.22-1.98 5.07q-0.76 0.33-1.54 0.32z" class="s11" id="&lt;Path&gt;"/>
				</g>
				<g id="&lt;Group&gt;">
					<path d="m550.73 2272.22c-1.26 0-2.49-0.61-3.23-1.74-17.45-26.82-19.77-50.49-7.1-72.38 10.78-18.6 30.96-33.04 48.77-45.77 7.52-5.38 14.63-10.47 20.65-15.54 33.04-27.89 20.83-88.03 20.71-88.63-0.44-2.08 0.89-4.12 2.97-4.56 2.08-0.44 4.12 0.89 4.56 2.97 0.56 2.65 13.25 65.28-23.28 96.1-6.25 5.27-13.48 10.44-21.14 15.92-17.17 12.28-36.63 26.2-46.58 43.37-11.08 19.13-8.83 40.17 6.89 64.32 1.16 1.78 0.66 4.16-1.13 5.32-0.64 0.42-1.37 0.62-2.09 0.62z" class="s11" id="&lt;Path&gt;"/>
				</g>
				<g id="&lt;Group&gt;">
					<path d="m426.47 2394.27c-1.56 0-3.03-0.95-3.6-2.5-0.19-0.52-4.68-12.82-3.25-30.38 1.31-16.13 8.08-39.95 32.9-61.82 43.11-37.97 41.06-86.58 33.91-146.19-6.78-56.49 32.76-87.95 34.44-89.26 1.68-1.31 4.1-1 5.4 0.67 1.31 1.68 1.01 4.1-0.67 5.4-0.38 0.3-37.78 30.22-31.53 82.27 3.37 28.1 6.08 55.45 2.18 81.17-4.42 29.25-17.06 52.71-38.64 71.72-18.27 16.1-28.46 35.04-30.29 56.31-1.37 15.94 2.72 27.32 2.77 27.43 0.73 1.99-0.29 4.21-2.28 4.94q-0.67 0.25-1.34 0.24z" class="s11" id="&lt;Path&gt;"/>
				</g>
				<g id="&lt;Group&gt;">
					<path d="m1054.32 2758.23c-1.84 0-3.46-1.32-3.79-3.19-0.47-2.69-47.75-270.42-101.55-342.52-1.27-1.7-0.92-4.11 0.78-5.38 1.71-1.28 4.12-0.92 5.39 0.78 54.9 73.56 101.03 334.72 102.96 345.8 0.37 2.09-1.03 4.09-3.12 4.45q-0.34 0.06-0.67 0.06z" class="s11" id="&lt;Path&gt;"/>
				</g>
				<g id="&lt;Group&gt;">
					<path d="m765.14 1923.66c-1.43 0-2.81-0.8-3.47-2.17-0.92-1.92-0.11-4.22 1.8-5.14 23.5-11.32 38.98-28.64 46-51.5 5.28-17.18 3.55-31.26 3.53-31.4-0.27-2.11 1.22-4.04 3.32-4.31 2.1-0.29 4.04 1.2 4.31 3.31 0.09 0.62 1.97 15.61-3.7 34.33-5.24 17.29-18.19 41.13-50.12 56.5q-0.82 0.39-1.67 0.38z" class="s11" id="&lt;Path&gt;"/>
				</g>
				<g id="&lt;Group&gt;">
					<path d="m937.77 2278.82c-0.81 0-1.63-0.25-2.32-0.78-1.69-1.28-2.03-3.69-0.75-5.38 0.36-0.48 35.6-48.06 13.98-88.23-8.57-15.9-19.9-30.51-29.9-43.39-17.45-22.49-32.52-41.91-28.77-61.42 0.4-2.08 2.42-3.44 4.51-3.05 2.08 0.4 3.45 2.42 3.05 4.51-3.1 16.08 10.98 34.23 27.29 55.24 10.18 13.12 21.72 27.99 30.59 44.47 23.99 44.54-13.02 94.4-14.61 96.5-0.76 1-1.91 1.53-3.07 1.53z" class="s11" id="&lt;Path&gt;"/>
				</g>
			</g>
			<g id="&lt;Group&gt;">
				<g id="&lt;Group&gt;">
					<path d="m5217.81 1930.26l35.05-250.29-169.2-38.36c0 0-15.39 135.81-27.49 235.87-5.01 41.51 161.64 52.78 161.64 52.78z" class="s8" id="&lt;Path&gt;"/>
				</g>
				<g id="&lt;Group&gt;">
					<path d="m4747.2 2157.87c0 0 136.71-10.08 201.22-73.67 76.97-75.87 111.45-237.54 111.45-237.54l162.78 49.02c0 0-22.43 422.73-279.73 587.66z" class="s4" id="&lt;Path&gt;"/>
				</g>
				<g id="&lt;Group&gt;">
					<path d="m4239.2 2607.59c0 0-131.95 285.89-145.14 310.08l127.55 59.37c0 0 164.54-205.55 189.12-279.29 32.99-98.96-171.53-90.16-171.53-90.16z" class="s8" id="&lt;Path&gt;"/>
				</g>
				<g id="&lt;Group&gt;">
					<path d="m4051.18 2956.15c0 0 51.42-34.24 61.44-64.4l119.98 68.8-41.78 75.87z" class="s8" id="&lt;Path&gt;"/>
				</g>
				<g id="&lt;Group&gt;">
					<path d="m4575.99 2170.17c0 0-125.34-10.04-174.92 78.96-49.59 89.01-144.42 320.91-177.48 386.84l170.32 94.76c0 0 215.02-524.24 182.08-560.56z" class="s4" id="&lt;Path&gt;"/>
				</g>
				<g id="&lt;Group&gt;">
					<path d="m5083.7 1685.62c-12.56-21.17-39.47-65.3-39.47-65.3l57.05 7.53z" class="s8" id="&lt;Path&gt;"/>
				</g>
				<path d="m4578.96 1821.4c0 0-23.09-90.16 18.7-78.06 41.78 12.09 53.87-53.88 131.94-24.19 78.07 29.68 53.88 101.16 78.07 107.75 24.19 6.6 49.48 3.3 56.08 56.08 6.6 52.78-38.8 144.7-99.12 146.57-60.32 1.87-61.42-161.96-185.67-208.15z" class="s10" id="&lt;Path&gt;"/>
				<g id="&lt;Group&gt;">
					<path d="m4609.75 2188.66c-54.98 19.79-130.16 20.61-180.88 224.86-59.92 241.35-94.01 540.43-94.01 540.43l594.86 257.3c0 0 109.96-844.46-57.64-990.43-147.65-128.59-262.33-32.16-262.33-32.16z" class="s4" id="&lt;Path&gt;"/>
				</g>
				<g id="&lt;Group&gt;">
					<path d="m5183.7 1511.68c0 0-45.26-28.09-58.29-93.25-29.14-145.72-221.48-279.78-343.88-145.72-130.88 143.34 40.8 349.72 209.82 343.89 79.23-2.74 122.4 52.45 186.52 81.6 64.11 29.14 113.66-53.7 88.88-99.71-24.77-46.01-83.05-86.81-83.05-86.81z" class="s6" id="&lt;Path&gt;"/>
				</g>
				<g id="&lt;Group&gt;">
					<path d="m5266.75 1598.49q-0.93-1.72-1.92-3.43l-55.91-28.56-62.59 114.76c10.08 6.13 20.5 11.92 31.54 16.94 64.11 29.14 113.66-53.7 88.88-99.71z" class="s13" id="&lt;Path&gt;"/>
				</g>
				<g id="&lt;Group&gt;">
					<path d="m5160.38 1505.85c-10.52 18.94-34.97 58.29-11.65 75.78 13.18 9.89 34.97 0 64.11-58.29 19.85-39.7-23.31-69.94-52.46-17.49z" class="s8" id="&lt;Path&gt;"/>
				</g>
				<g id="&lt;Group&gt;">
					<path d="m5195.35 1523.34c-10.52 18.94-34.97 58.29-11.65 75.77 13.19 9.89 34.97 0 64.11-58.28 19.85-39.71-23.31-69.95-52.46-17.49z" class="s8" id="&lt;Path&gt;"/>
				</g>
				<g id="&lt;Group&gt;">
					<path d="m5230.33 1546.65c-10.52 18.94-34.98 58.29-11.66 75.78 13.19 9.89 34.97 0 64.11-58.29 19.85-39.7-23.31-69.94-52.45-17.49z" class="s8" id="&lt;Path&gt;"/>
				</g>
				<g id="&lt;Group&gt;">
					<path d="m4603.35 2088.73l-48.58 124.12c128.65 67.07 205.62-31.89 205.62-31.89l27.53-199.4c0 0-188.06 80.24-184.57 107.17z" class="s8" id="&lt;Path&gt;"/>
				</g>
				<path d="m4605.43 2082.14l-38.56 98.82 166.03-137.44z" class="s10" id="&lt;Path&gt;"/>
				<g id="&lt;Group&gt;">
					<path d="m4759.28 1952.25c-6.47 20.24 4.7 41.9 24.95 48.37 20.24 6.47 41.9-4.7 48.37-24.95 6.47-20.24-4.7-41.9-24.95-48.37-20.24-6.47-41.9 4.7-48.37 24.95z" class="s8" id="&lt;Path&gt;"/>
				</g>
				<g id="&lt;Group&gt;">
					<path d="m4775.35 2007.72c4.16 26.72-161.45 95.54-217.17 69.12-67.16-31.85-18.54-232.89 37.63-273.1 56.17-40.2 187.75-8.36 178.88 131.69z" class="s8" id="&lt;Path&gt;"/>
				</g>
				<path d="m4733.16 1818.25c0 0 18.43 20.75 17.34 64.73-0.71 28.02 5.49 62.01 24.19 52.45 18.69-9.57 7.69-85.44 1.1-92.03-6.6-6.6-42.63-25.15-42.63-25.15z" class="s10" id="&lt;Path&gt;"/>
				<g id="&lt;Group&gt;">
					<path d="m4046.09 3048.76l-90.98 25.8c-16.07 4.56-32.78-4.77-37.34-20.84-4.56-16.07 4.78-32.78 20.84-37.34l90.98-25.8c16.06-4.56 32.78 4.77 37.34 20.84 4.55 16.07-4.78 32.79-20.84 37.34z" class="s8" id="&lt;Path&gt;"/>
				</g>
				<g id="&lt;Group&gt;">
					<path d="m4067.01 3077.34l-88.58 33.09c-15.65 5.84-33.07-2.11-38.91-17.75-5.84-15.64 2.1-33.06 17.75-38.91l88.58-33.08c15.65-5.85 33.07 2.1 38.91 17.74 5.84 15.65-2.1 33.07-17.75 38.91z" class="s8" id="&lt;Path&gt;"/>
				</g>
				<g id="&lt;Group&gt;">
					<path d="m4102.48 3099.02l-87.71 35.35c-15.48 6.24-33.1-1.26-39.34-16.75-6.25-15.49 1.25-33.1 16.74-39.35l87.71-35.34c15.49-6.24 33.1 1.25 39.35 16.74 6.24 15.49-1.26 33.11-16.75 39.35z" class="s8" id="&lt;Path&gt;"/>
				</g>
				<g id="&lt;Group&gt;">
					<path d="m4057.12 3014.67l-88.59 33.08c-15.64 5.84-33.06-2.1-38.9-17.74-5.85-15.65 2.1-33.07 17.74-38.91l88.59-33.09c15.64-5.84 33.06 2.1 38.9 17.75 5.85 15.64-2.1 33.06-17.74 38.91z" class="s8" id="&lt;Path&gt;"/>
				</g>
				<g id="&lt;Group&gt;">
					<path d="m4114.95 3078.2c-4.4 5.5-5.14 80.44 20.89 78.07 36.29-3.3 54.98-119.85 54.98-119.85l-129.75-87.97-39.58 17.6z" class="s8" id="&lt;Path&gt;"/>
				</g>
				<path d="m4307.37 2865.99l142.95-527.79-92.37 459.61z" class="s10" id="&lt;Path&gt;"/>
				<path d="m5126.58 1671.67c0 0 60.25 35.45 82.34 34.87 22.08-0.59 43.15-20.92 43.15-20.92l-8.47 60.45-117.05-45.62z" class="s10" id="&lt;Path&gt;"/>
				<path d="m4563.57 2190.86c0 0-52.64 50.47-16.49 84.66 40.68 38.49 187.2 47.24 216.2-115.47z" class="s8" id="&lt;Path&gt;"/>
				<g id="&lt;Group&gt;">
					<path d="m4811.52 1983.04c-0.84 0-1.68-0.27-2.38-0.83l-20.9-16.49c-1.03-0.82-1.57-2.1-1.44-3.41 0.14-1.31 0.93-2.46 2.11-3.05l19.79-9.9c1.91-0.95 4.21-0.18 5.16 1.72 0.95 1.9 0.18 4.21-1.72 5.16l-14.37 7.19 16.14 12.74c1.66 1.32 1.95 3.74 0.63 5.41-0.76 0.96-1.88 1.46-3.02 1.46z" class="s11" id="&lt;Path&gt;"/>
				</g>
				<path d="m4635.2 1916.26c-2.73 7.77-0.49 15.63 5.01 17.56 5.49 1.94 12.16-2.79 14.89-10.55 2.74-7.76 0.5-15.62-5-17.56-5.49-1.93-12.16 2.79-14.9 10.55z" class="s11" id="&lt;Path&gt;"/>
				<g id="&lt;Group&gt;">
					<path d="m4664.36 1923.14c-1.48 0-2.88-0.86-3.52-2.29-0.29-0.64-6.9-14.58-26.69-11.63-2.11 0.32-4.06-1.13-4.37-3.23-0.32-2.11 1.13-4.06 3.23-4.38 20.64-3.08 31.84 9.21 34.87 16.13 0.86 1.95-0.03 4.22-1.98 5.07q-0.76 0.33-1.54 0.33z" class="s11" id="&lt;Path&gt;"/>
				</g>
				<path d="m4549.5 1881.81c-2.74 7.76-0.5 15.62 5 17.55 5.49 1.94 12.16-2.79 14.89-10.55 2.74-7.76 0.5-15.62-5-17.56-5.49-1.93-12.16 2.79-14.89 10.56z" class="s11" id="&lt;Path&gt;"/>
				<g id="&lt;Group&gt;">
					<path d="m4578.65 1888.68c-1.47 0-2.88-0.86-3.52-2.29-0.29-0.64-6.89-14.58-26.69-11.62-2.11 0.32-4.06-1.14-4.37-3.24-0.32-2.11 1.13-4.06 3.24-4.38 20.63-3.08 31.83 9.21 34.86 16.13 0.86 1.95-0.03 4.22-1.98 5.07q-0.76 0.33-1.54 0.33z" class="s11" id="&lt;Path&gt;"/>
				</g>
				<g id="&lt;Group&gt;">
					<path d="m4581.18 1950.49c-1.32 0-2.6-0.68-3.31-1.89l-10.77-18.21c-0.52-0.89-0.67-1.96-0.4-2.96 0.27-1 0.93-1.85 1.83-2.35 7.43-4.2 17.68-17.71 21.01-22.56 1.2-1.75 3.59-2.2 5.35-1 1.75 1.2 2.2 3.6 1 5.35-0.48 0.69-10.62 15.44-20.31 22.74l8.91 15.07c1.08 1.83 0.48 4.19-1.35 5.27-0.62 0.36-1.29 0.54-1.96 0.54z" class="s11" id="&lt;Path&gt;"/>
				</g>
				<g id="&lt;Group&gt;">
					<path d="m4563.74 2025.51c-5.28 0-10.33-1.55-14.95-4.63-20.25-13.5-14.77-43.77-9.27-52.99 2.16-3.62 6.74-2.01 14.04 0.92 4.69 1.88 11.08 4.71 19 8.4 13.42 6.25 26.8 12.94 26.93 13 1.61 0.81 2.44 2.61 2.02 4.36-2.43 9.96-13.05 23.44-26.62 28.73-3.78 1.47-7.52 2.21-11.15 2.21zm-18.6-51.62c-3.53 8.61-6.64 30.88 7.92 40.58 5.7 3.8 12.1 4.36 19.03 1.66 9.49-3.7 17.84-12.95 20.98-20.52-19.77-9.81-41.09-19.65-47.93-21.72z" class="s11" id="&lt;Compound Path&gt;"/>
				</g>
				<path d="m4678.44 1895.68c0 0-13.24-14.3-32.86-15.75-19.62-1.46 23.55-37.63 32.86 15.75z" class="s11" id="&lt;Path&gt;"/>
				<path d="m4544.8 1852.49c0 0 15.61-1.06 31.91 9.95 16.29 11.02 9.95-38.84-31.91-9.95z" class="s11" id="&lt;Path&gt;"/>
				<g id="&lt;Group&gt;">
					<path d="m5172.86 1583.8q-0.95 0-1.84-0.47c-1.87-1.02-2.55-3.36-1.53-5.22l44.13-80.73c1.02-1.87 3.36-2.56 5.22-1.54 1.87 1.02 2.55 3.36 1.53 5.23l-44.13 80.73c-0.7 1.28-2.02 2-3.38 2z" class="s11" id="&lt;Path&gt;"/>
				</g>
				<g id="&lt;Group&gt;">
					<path d="m5210.53 1603.18c-0.65 0-1.32-0.17-1.92-0.52-1.84-1.07-2.47-3.42-1.4-5.26l43.05-74.27c1.07-1.84 3.43-2.47 5.26-1.4 1.84 1.06 2.47 3.42 1.4 5.25l-43.05 74.28c-0.72 1.23-2.01 1.92-3.34 1.92z" class="s11" id="&lt;Path&gt;"/>
				</g>
				<g id="&lt;Group&gt;">
					<path d="m5126.58 1704.36c-2.13 0-3.85-1.73-3.85-3.85 0-12.95-8.16-30.48-8.25-30.66-0.9-1.92-0.07-4.21 1.85-5.12 1.92-0.9 4.21-0.07 5.12 1.85 0.36 0.78 8.98 19.24 8.98 33.93 0 2.12-1.73 3.85-3.85 3.85z" class="s11" id="&lt;Path&gt;"/>
				</g>
				<g id="&lt;Group&gt;">
					<path d="m5160.9 1657.09c-1.61 0-3.98-1.62-14.19-9.12-7.37-5.41-17.54-13.03-30.41-22.67-63.56-47.59-200.12-149.85-262.59-180.31-14.45 6.63-28.82 5.87-38.08 2.05-6.92-2.85-10.41-7.18-9.36-11.58 1.37-5.68 9.28-7.98 23.53-6.81 5.69 0.46 13.8 3.27 23.78 7.92 7.74-4.2 15.95-11.34 23.21-23.31 5.89-9.69 9.77-17.71 12.23-24.33q-3.22-0.22-6.13-1.35c-9.74-3.79-13.89-14.32-14.53-22.91-0.19-2.61-0.44-11.32 4.43-14.11 4.61-2.63 15.01-2.62 21.74 4.29 4.29 4.4 7.48 11.86 5.19 24.44 7.41-2.95 16.25-9.17 26.16-18.5 13.91-13.09 22.76-24.31 28.12-33.58-6.37-14.76-9.69-26.23-9.42-32.35 0.2-4.54 2.33-6.3 4.09-6.98 6.49-2.49 13.43-0.07 17.27 6.04 4.39 6.98 4.51 18.42-3.37 33.61 7.58 16.92 19.54 39.16 36.64 64.34 23.71 34.91 73.68 98.46 141.98 131.88 1.91 0.94 2.7 3.24 1.76 5.15-0.93 1.91-3.23 2.7-5.15 1.76-64.35-31.49-112.44-87.74-141.46-129.38-16.46-23.63-29.6-46.7-38.53-65.65-5.98 9.17-14.65 19.47-26.65 30.77-12.8 12.04-24.07 19.29-33.71 21.69-2.6 8-7.07 17.62-14.08 29.17-6.44 10.61-13.94 18.15-21.68 23.28 65.31 33.4 192.2 128.41 259.22 178.6 20.44 15.3 38.16 28.57 41.24 30.33 1.15 0.35 2.12 1.23 2.52 2.46 0.68 2.02-0.41 4.2-2.43 4.87-0.5 0.16-0.89 0.29-1.34 0.29zm-346.7-219.78c1.47 1.5 6.26 4.16 13.99 4.82 3.5 0.3 9.11 0.28 15.68-1.58-6-2.46-10.96-3.93-14.69-4.23-9.69-0.79-13.61 0.35-14.98 0.99zm62.62-80.17c-1.64 2.49-1.41 14.87 5.09 20.89 2.53 2.34 5.74 3.42 9.5 3.24 3.18-12.85-0.09-18.69-2.39-21.05-4.01-4.11-10.12-4.03-12.2-3.08zm75.43-62.33c-0.49 2.92 1.46 11.07 6.27 23.15 3.8-9.77 3.09-16.47 0.91-19.94-1.69-2.68-4.43-3.88-7.18-3.21z" class="s0" id="&lt;Compound Path&gt;"/>
				</g>
				<g id="&lt;Group&gt;">
					<path d="m5149.18 1684.98q-0.89 0.01-1.74-0.41c-1.89-0.96-2.65-3.28-1.69-5.18l39.83-78.57c0.96-1.9 3.27-2.66 5.17-1.7 1.9 0.96 2.65 3.28 1.69 5.18l-39.82 78.57c-0.68 1.34-2.04 2.11-3.44 2.11z" class="s11" id="&lt;Path&gt;"/>
				</g>
				<g id="&lt;Group&gt;">
					<path d="m5203.34 1710.38c-5.51 0-10.83-0.82-15.6-2.48-35.56-12.38-141.14-81.43-145.62-84.36-1.77-1.17-2.27-3.55-1.11-5.33 1.17-1.78 3.55-2.28 5.33-1.11 1.09 0.71 109.26 71.46 143.93 83.53 3.51 1.22 16.18 4.71 32.23-1.65 15.48-6.13 28.44-19.07 38.5-38.46 19.5-37.6 0.95-62.89 0.76-63.14-1.28-1.7-0.94-4.11 0.75-5.39 1.7-1.28 4.11-0.95 5.39 0.75 0.9 1.18 21.65 29.46-0.07 71.32-10.79 20.79-25.48 35.34-42.5 42.08-7.11 2.81-14.72 4.24-21.99 4.24z" class="s11" id="&lt;Path&gt;"/>
				</g>
				<g id="&lt;Group&gt;">
					<path d="m3927.48 3026.52c-1.53 0-2.97-0.91-3.58-2.41-0.79-1.97 0.17-4.21 2.14-5.01l84.66-34.08c1.97-0.79 4.22 0.16 5.01 2.13 0.79 1.97-0.16 4.21-2.13 5.01l-84.67 34.08q-0.71 0.29-1.43 0.28z" class="s11" id="&lt;Path&gt;"/>
				</g>
				<g id="&lt;Group&gt;">
					<path d="m3939.57 3073.8c-0.74 0-1.48-0.21-2.14-0.64-1.76-1.18-2.24-3.57-1.06-5.34 1.21-1.81 3.46-5.19 53.05-22.66 23.96-8.44 47.68-16.17 47.92-16.25 2.02-0.66 4.19 0.45 4.85 2.47 0.66 2.02-0.45 4.19-2.47 4.85-44.21 14.4-92.47 31.76-97.08 36.04-0.75 1-1.9 1.53-3.07 1.53z" class="s11" id="&lt;Compound Path&gt;"/>
				</g>
				<g id="&lt;Group&gt;">
					<path d="m3978.05 3114.49c-1.61 0-3.11-1.02-3.65-2.63-0.67-2.02 0.42-4.2 2.44-4.87 7.66-2.56 62.06-27.63 89.75-40.52 1.92-0.9 4.22-0.07 5.12 1.86 0.89 1.93 0.06 4.22-1.87 5.11-3.28 1.53-80.58 37.52-90.57 40.85q-0.61 0.2-1.22 0.2z" class="s11" id="&lt;Path&gt;"/>
				</g>
				<g id="&lt;Group&gt;">
					<path d="m4335.42 2958.35q-0.25 0-0.51-0.03c-2.11-0.28-3.59-2.21-3.31-4.32 0.57-4.38 59.19-442.7 115.61-614.26 0.66-2.02 2.84-3.11 4.86-2.45 2.02 0.67 3.12 2.84 2.45 4.86-56.2 170.89-114.72 608.48-115.29 612.85-0.26 1.94-1.91 3.35-3.81 3.35z" class="s11" id="&lt;Path&gt;"/>
				</g>
				<g id="&lt;Group&gt;">
					<path d="m4354.1 2712.05q-0.96 0-1.86-0.48l-130.85-72.58c-1.86-1.03-2.53-3.37-1.5-5.23 1.03-1.86 3.38-2.53 5.23-1.5l130.85 72.57c1.86 1.04 2.53 3.38 1.5 5.24-0.7 1.26-2.02 1.98-3.37 1.98z" class="s11" id="&lt;Path&gt;"/>
				</g>
				<g id="&lt;Group&gt;">
					<path d="m5222.76 1899.47q-0.55 0.01-1.1-0.15l-167.13-49.48c-2.04-0.61-3.2-2.75-2.6-4.79 0.61-2.03 2.75-3.2 4.79-2.6l167.13 49.48c2.04 0.61 3.2 2.75 2.6 4.79-0.5 1.67-2.03 2.75-3.69 2.75z" class="s11" id="&lt;Path&gt;"/>
				</g>
			</g>
			<g id="&lt;Group&gt;">
				<g id="&lt;Group&gt;">
					<path d="m2966.37 3190.34c0 0-313.73-182.89-301.77-187.87 16.75-6.98 298.78-73.23 298.78-73.23z" class="s14" id="&lt;Path&gt;"/>
				</g>
				<path d="m3595 3091.87l-627.64 134.28-19.89-501.32 644.54-92.5z" class="s15" id="&lt;Path&gt;"/>
				<path d="m2970.47 3226.64l-305.87-192.29 0.99-31.88 300.78 187.87z" class="s15" id="&lt;Path&gt;"/>
				<g id="&lt;Group&gt;">
					<path d="m3596.66 3088.51c-2.12 0-3.84-1.72-3.84-3.84v-447.88l-452.91 67.1c-2.1 0.32-4.06-1.14-4.37-3.25-0.31-2.1 1.14-4.05 3.24-4.37l457.32-67.75c1.1-0.16 2.23 0.16 3.08 0.9 0.84 0.73 1.33 1.79 1.33 2.91v452.34c0 2.12-1.72 3.84-3.85 3.84z" class="s11" id="&lt;Path&gt;"/>
				</g>
			</g>
			<g id="&lt;Group&gt;">
				<path d="m1957.84 2892.96c-1.86 0-3.49-1.35-3.79-3.25-0.33-2.1 1.1-4.07 3.2-4.4l992.86-155.72c2.1-0.32 4.07 1.11 4.4 3.21 0.33 2.1-1.11 4.06-3.21 4.39l-992.86 155.72q-0.3 0.05-0.6 0.05z" class="s11" id="&lt;Path&gt;"/>
			</g>
			<g id="&lt;Group&gt;">
				<path d="m4121.06 2865.49q-0.77 0.01-1.52-0.31l-53.47-23.1c-1.95-0.84-2.85-3.11-2.01-5.06 0.85-1.95 3.11-2.85 5.06-2.01l53.47 23.1c1.95 0.84 2.85 3.11 2.01 5.06-0.63 1.45-2.05 2.32-3.54 2.32z" class="s11" id="&lt;Path&gt;"/>
			</g>
			<g id="&lt;Group&gt;">
				<path d="m5194.93 3329.44q-0.77 0.01-1.53-0.31l-931.41-402.41c-1.95-0.84-2.85-3.1-2-5.05 0.84-1.95 3.11-2.85 5.06-2.01l931.41 402.4c1.95 0.84 2.84 3.11 2 5.06-0.63 1.45-2.04 2.32-3.53 2.32z" class="s11" id="&lt;Path&gt;"/>
			</g>
			<g id="&lt;Group&gt;">
				<path d="m212.63 3166.68c-1.86 0-3.5-1.35-3.8-3.25-0.33-2.1 1.11-4.07 3.21-4.4l1511.4-237.05c2.11-0.33 4.07 1.11 4.4 3.21 0.33 2.1-1.11 4.06-3.21 4.39l-1511.4 237.05q-0.3 0.05-0.6 0.05z" class="s11" id="&lt;Path&gt;"/>
			</g>
		</g>
	</g>
</svg>